<?xml version="1.0" encoding="UTF-8" standalone="no"?><svg xmlns="http://www.w3.org/2000/svg" xmlns:xlink="http://www.w3.org/1999/xlink" contentStyleType="text/css" height="542px" preserveAspectRatio="none" style="width:719px;height:542px;background:#FFFFFF;" version="1.1" viewBox="0 0 719 542" width="719px" zoomAndPan="magnify"><defs/><g><!--MD5=[aa2bb12b1d34009d39b42a242f861e93]
class Pays--><g id="elem_Pays"><rect codeLine="2" fill="#F1F1F1" height="80.9766" id="Pays" rx="2.5" ry="2.5" style="stroke:#181818;stroke-width:0.5;" width="103" x="215" y="430.13"/><ellipse cx="248.45" cy="446.13" fill="#ADD1B2" rx="11" ry="11" style="stroke:#181818;stroke-width:1.0;"/><path d="M252.0643,452.63 L244.3445,452.63 L244.3445,440.2369 L252.0643,440.2369 L252.0643,442.3951 L246.7933,442.3951 L246.7933,445.068 L251.5662,445.068 L251.5662,447.2262 L246.7933,447.2262 L246.7933,450.4718 L252.0643,450.4718 Z " fill="#000000"/><text fill="#000000" font-family="sans-serif" font-size="14" lengthAdjust="spacing" textLength="30" x="266.55" y="451.421">Pays</text><line style="stroke:#181818;stroke-width:0.5;" x1="216" x2="317" y1="462.13" y2="462.13"/><text fill="#000000" font-family="sans-serif" font-size="14" lengthAdjust="spacing" textLength="56" x="221" y="479.6652">codeISO</text><text fill="#000000" font-family="sans-serif" font-size="14" lengthAdjust="spacing" textLength="91" x="221" y="496.1534">descriptionFr</text><line style="stroke:#181818;stroke-width:0.5;" x1="216" x2="317" y1="503.1066" y2="503.1066"/></g><!--MD5=[01f9a401cf506495089c678bd476f389]
class Avion--><g id="elem_Avion"><rect codeLine="7" fill="#F1F1F1" height="130.4414" id="Avion" rx="2.5" ry="2.5" style="stroke:#181818;stroke-width:0.5;" width="108" x="41.5" y="197.96"/><ellipse cx="73.15" cy="213.96" fill="#ADD1B2" rx="11" ry="11" style="stroke:#181818;stroke-width:1.0;"/><path d="M76.7643,220.46 L69.0445,220.46 L69.0445,208.0669 L76.7643,208.0669 L76.7643,210.2251 L71.4933,210.2251 L71.4933,212.898 L76.2662,212.898 L76.2662,215.0562 L71.4933,215.0562 L71.4933,218.3018 L76.7643,218.3018 Z " fill="#000000"/><text fill="#000000" font-family="sans-serif" font-size="14" lengthAdjust="spacing" textLength="39" x="90.85" y="219.251">Avion</text><line style="stroke:#181818;stroke-width:0.5;" x1="42.5" x2="148.5" y1="229.96" y2="229.96"/><text fill="#000000" font-family="sans-serif" font-size="14" lengthAdjust="spacing" textLength="53" x="47.5" y="247.4952">marque</text><text fill="#000000" font-family="sans-serif" font-size="14" lengthAdjust="spacing" textLength="54" x="47.5" y="263.9834">numero</text><text fill="#000000" font-family="sans-serif" font-size="14" lengthAdjust="spacing" textLength="29" x="47.5" y="280.4717">type</text><text fill="#000000" font-family="sans-serif" font-size="14" lengthAdjust="spacing" textLength="96" x="47.5" y="296.96">nombrePlaces</text><text fill="#000000" font-family="sans-serif" font-size="14" lengthAdjust="spacing" textLength="69" x="47.5" y="313.4483">dateAchat</text><line style="stroke:#181818;stroke-width:0.5;" x1="42.5" x2="148.5" y1="320.4014" y2="320.4014"/></g><!--MD5=[93e6ce547ff226cccf2c6dd7385ec68f]
class Aeroport--><g id="elem_Aeroport"><rect codeLine="15" fill="#F1F1F1" height="113.9531" id="Aeroport" rx="2.5" ry="2.5" style="stroke:#181818;stroke-width:0.5;" width="94" x="219.5" y="206.2"/><ellipse cx="234.5" cy="222.2" fill="#ADD1B2" rx="11" ry="11" style="stroke:#181818;stroke-width:1.0;"/><path d="M238.1143,228.7 L230.3945,228.7 L230.3945,216.3069 L238.1143,216.3069 L238.1143,218.4651 L232.8433,218.4651 L232.8433,221.138 L237.6162,221.138 L237.6162,223.2962 L232.8433,223.2962 L232.8433,226.5418 L238.1143,226.5418 Z " fill="#000000"/><text fill="#000000" font-family="sans-serif" font-size="14" lengthAdjust="spacing" textLength="62" x="248.5" y="227.491">Aeroport</text><line style="stroke:#181818;stroke-width:0.5;" x1="220.5" x2="312.5" y1="238.2" y2="238.2"/><text fill="#000000" font-family="sans-serif" font-size="14" lengthAdjust="spacing" textLength="33" x="225.5" y="255.7352">code</text><text fill="#000000" font-family="sans-serif" font-size="14" lengthAdjust="spacing" textLength="31" x="225.5" y="272.2234">nom</text><text fill="#000000" font-family="sans-serif" font-size="14" lengthAdjust="spacing" textLength="27" x="225.5" y="288.7117">ville</text><text fill="#000000" font-family="sans-serif" font-size="14" lengthAdjust="spacing" textLength="31" x="225.5" y="305.2">pays</text><line style="stroke:#181818;stroke-width:0.5;" x1="220.5" x2="312.5" y1="312.1531" y2="312.1531"/></g><!--MD5=[441ae960a862e573906b3bd2852bbbcc]
class OccurrenceVol--><g id="elem_OccurrenceVol"><rect codeLine="22" fill="#F1F1F1" height="113.9531" id="OccurrenceVol" rx="2.5" ry="2.5" style="stroke:#181818;stroke-width:0.5;" width="137" x="380" y="206.2"/><ellipse cx="397.25" cy="222.2" fill="#ADD1B2" rx="11" ry="11" style="stroke:#181818;stroke-width:1.0;"/><path d="M400.8643,228.7 L393.1445,228.7 L393.1445,216.3069 L400.8643,216.3069 L400.8643,218.4651 L395.5933,218.4651 L395.5933,221.138 L400.3662,221.138 L400.3662,223.2962 L395.5933,223.2962 L395.5933,226.5418 L400.8643,226.5418 Z " fill="#000000"/><text fill="#000000" font-family="sans-serif" font-size="14" lengthAdjust="spacing" textLength="100" x="411.75" y="227.491">OccurrenceVol</text><line style="stroke:#181818;stroke-width:0.5;" x1="381" x2="516" y1="238.2" y2="238.2"/><text fill="#000000" font-family="sans-serif" font-size="14" lengthAdjust="spacing" textLength="122" x="386" y="255.7352">dateDepartPrevue</text><text fill="#000000" font-family="sans-serif" font-size="14" lengthAdjust="spacing" textLength="125" x="386" y="272.2234">dateArriveePrevue</text><text fill="#000000" font-family="sans-serif" font-size="14" lengthAdjust="spacing" textLength="117" x="386" y="288.7117">dateDepartReelle</text><text fill="#000000" font-family="sans-serif" font-size="14" lengthAdjust="spacing" textLength="120" x="386" y="305.2">dateArriveeReelle</text><line style="stroke:#181818;stroke-width:0.5;" x1="381" x2="516" y1="312.1531" y2="312.1531"/></g><!--MD5=[faefaeeaeee21baa303d48d30d35547c]
class Vol--><g id="elem_Vol"><rect codeLine="29" fill="#F1F1F1" height="113.9531" id="Vol" rx="2.5" ry="2.5" style="stroke:#181818;stroke-width:0.5;" width="121" x="234" y="7"/><ellipse cx="279.25" cy="23" fill="#ADD1B2" rx="11" ry="11" style="stroke:#181818;stroke-width:1.0;"/><path d="M282.8643,29.5 L275.1445,29.5 L275.1445,17.1069 L282.8643,17.1069 L282.8643,19.2651 L277.5933,19.2651 L277.5933,21.938 L282.3662,21.938 L282.3662,24.0962 L277.5933,24.0962 L277.5933,27.3418 L282.8643,27.3418 Z " fill="#000000"/><text fill="#000000" font-family="sans-serif" font-size="14" lengthAdjust="spacing" textLength="22" x="299.75" y="28.291">Vol</text><line style="stroke:#181818;stroke-width:0.5;" x1="235" x2="354" y1="39" y2="39"/><text fill="#000000" font-family="sans-serif" font-size="14" lengthAdjust="spacing" textLength="54" x="240" y="56.5352">numero</text><text fill="#000000" font-family="sans-serif" font-size="14" lengthAdjust="spacing" textLength="102" x="240" y="73.0234">dureeMoyenne</text><text fill="#000000" font-family="sans-serif" font-size="14" lengthAdjust="spacing" textLength="106" x="240" y="89.5117">aeroportDepart</text><text fill="#000000" font-family="sans-serif" font-size="14" lengthAdjust="spacing" textLength="109" x="240" y="106">aeroportArrivee</text><line style="stroke:#181818;stroke-width:0.5;" x1="235" x2="354" y1="112.9531" y2="112.9531"/></g><!--MD5=[7c8ba23bb7be92d44dd1be9ab48aedaf]
class DonneesTranspondeur--><g id="elem_DonneesTranspondeur"><rect codeLine="36" fill="#F1F1F1" height="80.9766" id="DonneesTranspondeur" rx="2.5" ry="2.5" style="stroke:#181818;stroke-width:0.5;" width="190" x="353.5" y="430.13"/><ellipse cx="368.5" cy="446.13" fill="#ADD1B2" rx="11" ry="11" style="stroke:#181818;stroke-width:1.0;"/><path d="M372.1143,452.63 L364.3945,452.63 L364.3945,440.2369 L372.1143,440.2369 L372.1143,442.3951 L366.8433,442.3951 L366.8433,445.068 L371.6162,445.068 L371.6162,447.2262 L366.8433,447.2262 L366.8433,450.4718 L372.1143,450.4718 Z " fill="#000000"/><text fill="#000000" font-family="sans-serif" font-size="14" lengthAdjust="spacing" textLength="158" x="382.5" y="451.421">DonneesTranspondeur</text><line style="stroke:#181818;stroke-width:0.5;" x1="354.5" x2="542.5" y1="462.13" y2="462.13"/><text fill="#000000" font-family="sans-serif" font-size="14" lengthAdjust="spacing" textLength="30" x="359.5" y="479.6652">date</text><text fill="#000000" font-family="sans-serif" font-size="14" lengthAdjust="spacing" textLength="90" x="359.5" y="496.1534">coordonnees</text><line style="stroke:#181818;stroke-width:0.5;" x1="354.5" x2="542.5" y1="503.1066" y2="503.1066"/></g><!--MD5=[0beb38d25f87035279933f69d2939b10]
class RevisionAvion--><g id="elem_RevisionAvion"><rect codeLine="41" fill="#F1F1F1" height="97.4648" id="RevisionAvion" rx="2.5" ry="2.5" style="stroke:#181818;stroke-width:0.5;" width="128" x="31.5" y="15.25"/><ellipse cx="46.5" cy="31.25" fill="#ADD1B2" rx="11" ry="11" style="stroke:#181818;stroke-width:1.0;"/><path d="M50.1143,37.75 L42.3945,37.75 L42.3945,25.3569 L50.1143,25.3569 L50.1143,27.5151 L44.8433,27.5151 L44.8433,30.188 L49.6162,30.188 L49.6162,32.3462 L44.8433,32.3462 L44.8433,35.5918 L50.1143,35.5918 Z " fill="#000000"/><text fill="#000000" font-family="sans-serif" font-size="14" lengthAdjust="spacing" textLength="96" x="60.5" y="36.541">RevisionAvion</text><line style="stroke:#181818;stroke-width:0.5;" x1="32.5" x2="158.5" y1="47.25" y2="47.25"/><text fill="#000000" font-family="sans-serif" font-size="14" lengthAdjust="spacing" textLength="30" x="37.5" y="64.7852">date</text><text fill="#000000" font-family="sans-serif" font-size="14" lengthAdjust="spacing" textLength="67" x="37.5" y="81.2734">peutVoler</text><text fill="#000000" font-family="sans-serif" font-size="14" lengthAdjust="spacing" textLength="29" x="37.5" y="97.7617">type</text><line style="stroke:#181818;stroke-width:0.5;" x1="32.5" x2="158.5" y1="104.7148" y2="104.7148"/></g><!--MD5=[d2a5054efb8cf591ccfcc95591a5345c]
class CompagnieAerienne--><g id="elem_CompagnieAerienne"><rect codeLine="50" fill="#F1F1F1" height="80.9766" id="CompagnieAerienne" rx="2.5" ry="2.5" style="stroke:#181818;stroke-width:0.5;" width="173" x="7" y="430.13"/><ellipse cx="22" cy="446.13" fill="#ADD1B2" rx="11" ry="11" style="stroke:#181818;stroke-width:1.0;"/><path d="M25.6143,452.63 L17.8945,452.63 L17.8945,440.2369 L25.6143,440.2369 L25.6143,442.3951 L20.3433,442.3951 L20.3433,445.068 L25.1162,445.068 L25.1162,447.2262 L20.3433,447.2262 L20.3433,450.4718 L25.6143,450.4718 Z " fill="#000000"/><text fill="#000000" font-family="sans-serif" font-size="14" lengthAdjust="spacing" textLength="141" x="36" y="451.421">CompagnieAerienne</text><line style="stroke:#181818;stroke-width:0.5;" x1="8" x2="179" y1="462.13" y2="462.13"/><text fill="#000000" font-family="sans-serif" font-size="14" lengthAdjust="spacing" textLength="31" x="13" y="479.6652">nom</text><text fill="#000000" font-family="sans-serif" font-size="14" lengthAdjust="spacing" textLength="77" x="13" y="496.1534">abreviation</text><line style="stroke:#181818;stroke-width:0.5;" x1="8" x2="179" y1="503.1066" y2="503.1066"/></g><!--MD5=[2b591347219e2d308bdf301555c4d62b]
class Voyage--><g id="elem_Voyage"><rect codeLine="55" fill="#F1F1F1" height="64.4883" id="Voyage" rx="2.5" ry="2.5" style="stroke:#181818;stroke-width:0.5;" width="82" x="597.5" y="230.93"/><ellipse cx="612.5" cy="246.93" fill="#ADD1B2" rx="11" ry="11" style="stroke:#181818;stroke-width:1.0;"/><path d="M616.1143,253.43 L608.3945,253.43 L608.3945,241.0369 L616.1143,241.0369 L616.1143,243.1951 L610.8433,243.1951 L610.8433,245.868 L615.6162,245.868 L615.6162,248.0262 L610.8433,248.0262 L610.8433,251.2718 L616.1143,251.2718 Z " fill="#000000"/><text fill="#000000" font-family="sans-serif" font-size="14" lengthAdjust="spacing" textLength="50" x="626.5" y="252.221">Voyage</text><line style="stroke:#181818;stroke-width:0.5;" x1="598.5" x2="678.5" y1="262.93" y2="262.93"/><text fill="#000000" font-family="sans-serif" font-size="14" lengthAdjust="spacing" textLength="28" x="603.5" y="280.4652">prix</text><line style="stroke:#181818;stroke-width:0.5;" x1="598.5" x2="678.5" y1="287.4183" y2="287.4183"/></g><!--MD5=[2f53d364b4e3b7d802afc29f72dce69f]
class Billet--><g id="elem_Billet"><rect codeLine="59" fill="#F1F1F1" height="97.4648" id="Billet" rx="2.5" ry="2.5" style="stroke:#181818;stroke-width:0.5;" width="65" x="552" y="15.25"/><ellipse cx="567" cy="31.25" fill="#ADD1B2" rx="11" ry="11" style="stroke:#181818;stroke-width:1.0;"/><path d="M570.6143,37.75 L562.8945,37.75 L562.8945,25.3569 L570.6143,25.3569 L570.6143,27.5151 L565.3433,27.5151 L565.3433,30.188 L570.1162,30.188 L570.1162,32.3462 L565.3433,32.3462 L565.3433,35.5918 L570.6143,35.5918 Z " fill="#000000"/><text fill="#000000" font-family="sans-serif" font-size="14" lengthAdjust="spacing" textLength="33" x="581" y="36.541">Billet</text><line style="stroke:#181818;stroke-width:0.5;" x1="553" x2="616" y1="47.25" y2="47.25"/><text fill="#000000" font-family="sans-serif" font-size="14" lengthAdjust="spacing" textLength="32" x="558" y="64.7852">rang</text><text fill="#000000" font-family="sans-serif" font-size="14" lengthAdjust="spacing" textLength="36" x="558" y="81.2734">siege</text><text fill="#000000" font-family="sans-serif" font-size="14" lengthAdjust="spacing" textLength="41" x="558" y="97.7617">classe</text><line style="stroke:#181818;stroke-width:0.5;" x1="553" x2="616" y1="104.7148" y2="104.7148"/></g><!--MD5=[ff1aec9047438da9d3e23b981a7faa18]
class Passager--><g id="elem_Passager"><rect codeLine="65" fill="#F1F1F1" height="130.4414" id="Passager" rx="2.5" ry="2.5" style="stroke:#181818;stroke-width:0.5;" width="125" x="579" y="405.4"/><ellipse cx="608.4" cy="421.4" fill="#ADD1B2" rx="11" ry="11" style="stroke:#181818;stroke-width:1.0;"/><path d="M612.0143,427.9 L604.2945,427.9 L604.2945,415.5069 L612.0143,415.5069 L612.0143,417.6651 L606.7433,417.6651 L606.7433,420.338 L611.5162,420.338 L611.5162,422.4962 L606.7433,422.4962 L606.7433,425.7418 L612.0143,425.7418 Z " fill="#000000"/><text fill="#000000" font-family="sans-serif" font-size="14" lengthAdjust="spacing" textLength="61" x="625.6" y="426.691">Passager</text><line style="stroke:#181818;stroke-width:0.5;" x1="580" x2="703" y1="437.4" y2="437.4"/><text fill="#000000" font-family="sans-serif" font-size="14" lengthAdjust="spacing" textLength="31" x="585" y="454.9352">nom</text><text fill="#000000" font-family="sans-serif" font-size="14" lengthAdjust="spacing" textLength="54" x="585" y="471.4234">prenom</text><text fill="#000000" font-family="sans-serif" font-size="14" lengthAdjust="spacing" textLength="98" x="585" y="487.9117">dateNaissance</text><text fill="#000000" font-family="sans-serif" font-size="14" lengthAdjust="spacing" textLength="25" x="585" y="504.4">age</text><text fill="#000000" font-family="sans-serif" font-size="14" lengthAdjust="spacing" textLength="113" x="585" y="520.8883">numeroPassport</text><line style="stroke:#181818;stroke-width:0.5;" x1="580" x2="703" y1="527.8414" y2="527.8414"/></g><!--MD5=[3efb8c8a00f7f3128b29f99bea7c7795]
link Vol to Aeroport--><g id="link_Vol_Aeroport"><path codeLine="74" d="M293.19,130.68 C292.41,143.1 291.24,155.96 289.5,167.96 C288.15,177.3 286.28,187.07 284.19,196.64 " fill="none" id="Vol-Aeroport" style="stroke:#181818;stroke-width:1.0;"/><line style="stroke:#181818;stroke-width:1.0;" x1="287.2565" x2="279.4552" y1="201.2352" y2="199.4635"/><line style="stroke:#181818;stroke-width:1.0;" x1="287.9209" x2="280.1196" y1="198.3097" y2="196.538"/><line style="stroke:#181818;stroke-width:1.0;" x1="284.2417" x2="282.47" y1="196.4487" y2="204.25"/><line style="stroke:#181818;stroke-width:1.0;" x1="293.187" x2="287.6392" y1="130.7877" y2="122.4678"/><line style="stroke:#181818;stroke-width:1.0;" x1="293.187" x2="299.6208" y1="130.7877" y2="123.1322"/><line style="stroke:#181818;stroke-width:1.0;" x1="293.187" x2="293.63" y1="130.7877" y2="122.8"/><ellipse cx="292.8548" cy="136.7785" fill="none" rx="4" ry="4" style="stroke:#181818;stroke-width:1.0;"/><text fill="#000000" font-family="sans-serif" font-size="13" lengthAdjust="spacing" textLength="35" x="293.5" y="164.5284">arrive</text></g><!--MD5=[3efb8c8a00f7f3128b29f99bea7c7795]
link Vol to Aeroport--><g id="link_Vol_Aeroport"><path codeLine="75" d="M260.79,129.85 C258.23,136.84 256.05,143.95 254.5,150.96 C251.27,165.56 251.07,181.44 252.37,196.52 " fill="none" id="Vol-Aeroport-1" style="stroke:#181818;stroke-width:1.0;"/><line style="stroke:#181818;stroke-width:1.0;" x1="256.7464" x2="248.7909" y1="199.8709" y2="200.7136"/><line style="stroke:#181818;stroke-width:1.0;" x1="256.4304" x2="248.4749" y1="196.8876" y2="197.7303"/><line style="stroke:#181818;stroke-width:1.0;" x1="252.3473" x2="253.19" y1="196.3145" y2="204.27"/><line style="stroke:#181818;stroke-width:1.0;" x1="260.7456" x2="258.0594" y1="129.9642" y2="120.3317"/><line style="stroke:#181818;stroke-width:1.0;" x1="260.7456" x2="269.2406" y1="129.9642" y2="124.6883"/><line style="stroke:#181818;stroke-width:1.0;" x1="260.7456" x2="263.65" y1="129.9642" y2="122.51"/><ellipse cx="258.5673" cy="135.5548" fill="none" rx="4" ry="4" style="stroke:#181818;stroke-width:1.0;"/><text fill="#000000" font-family="sans-serif" font-size="13" lengthAdjust="spacing" textLength="25" x="255.5" y="164.5284">part</text></g><!--MD5=[ccbaa2c8d4ccdd29c050b1e5dcdacb6c]
link Vol to Avion--><g id="link_Vol_Avion"><path codeLine="76" d="M231.19,127.72 C207.3,151.39 180.19,178.26 156.52,201.72 " fill="none" id="Vol-Avion" style="stroke:#181818;stroke-width:1.0;"/><line style="stroke:#181818;stroke-width:1.0;" x1="156.6668" x2="151.0386" y1="207.1986" y2="201.5132"/><line style="stroke:#181818;stroke-width:1.0;" x1="158.7988" x2="153.1706" y1="205.088" y2="199.4026"/><line style="stroke:#181818;stroke-width:1.0;" x1="156.6954" x2="151.01" y1="201.5418" y2="207.17"/><line style="stroke:#181818;stroke-width:1.0;" x1="230.9846" x2="232.4488" y1="127.9182" y2="118.026"/><line style="stroke:#181818;stroke-width:1.0;" x1="230.9846" x2="240.8912" y1="127.9182" y2="126.554"/><line style="stroke:#181818;stroke-width:1.0;" x1="230.9846" x2="236.67" y1="127.9182" y2="122.29"/><ellipse cx="226.7206" cy="132.1394" fill="none" rx="4" ry="4" style="stroke:#181818;stroke-width:1.0;"/><text fill="#000000" font-family="sans-serif" font-size="13" lengthAdjust="spacing" textLength="7" x="208.5" y="164.5284">a</text></g><!--MD5=[c0340e19428f123b5e09bc2c849701aa]
link Vol to OccurrenceVol--><g id="link_Vol_OccurrenceVol"><path codeLine="77" d="M344.1,128.49 C361.56,150.85 381.19,175.99 398.68,198.38 " fill="none" id="Vol-OccurrenceVol" style="stroke:#181818;stroke-width:1.0;"/><line style="stroke:#181818;stroke-width:1.0;" x1="398.6696" x2="408.3209" y1="198.3621" y2="200.9797"/><line style="stroke:#181818;stroke-width:1.0;" x1="398.6696" x2="398.8591" y1="198.3621" y2="208.3603"/><line style="stroke:#181818;stroke-width:1.0;" x1="398.6696" x2="403.59" y1="198.3621" y2="204.67"/><ellipse cx="394.9792" cy="193.6312" fill="none" rx="4" ry="4" style="stroke:#181818;stroke-width:1.0;"/><line style="stroke:#181818;stroke-width:1.0;" x1="338.668" x2="344.9744" y1="128.0344" y2="123.112"/><line style="stroke:#181818;stroke-width:1.0;" x1="340.5139" x2="346.8203" y1="130.3993" y2="125.4769"/><line style="stroke:#181818;stroke-width:1.0;" x1="344.2824" x2="339.36" y1="128.7264" y2="122.42"/><text fill="#000000" font-family="sans-serif" font-size="13" lengthAdjust="spacing" textLength="64" x="372.5" y="164.5284">est réalisé</text></g><!--MD5=[e55b83172bdec7a47a4aba08b4c97b03]
link Avion to CompagnieAerienne--><g id="link_Avion_CompagnieAerienne"><path codeLine="79" d="M94.78,338.1 C94.51,365.46 94.22,395.79 93.98,420.42 " fill="none" id="Avion-CompagnieAerienne" style="stroke:#181818;stroke-width:1.0;"/><line style="stroke:#181818;stroke-width:1.0;" x1="97.9426" x2="89.9431" y1="424.4431" y2="424.3574"/><line style="stroke:#181818;stroke-width:1.0;" x1="97.9748" x2="89.9752" y1="421.4433" y2="421.3575"/><line style="stroke:#181818;stroke-width:1.0;" x1="93.9857" x2="93.9" y1="420.4005" y2="428.4"/><line style="stroke:#181818;stroke-width:1.0;" x1="94.7743" x2="88.8603" y1="338.1295" y2="330.0657"/><line style="stroke:#181818;stroke-width:1.0;" x1="94.7743" x2="100.8597" y1="338.1295" y2="330.1943"/><line style="stroke:#181818;stroke-width:1.0;" x1="94.7743" x2="94.86" y1="338.1295" y2="330.13"/><ellipse cx="94.71" cy="344.1292" fill="none" rx="4" ry="4" style="stroke:#181818;stroke-width:1.0;"/><text fill="#000000" font-family="sans-serif" font-size="13" lengthAdjust="spacing" textLength="64" x="96.5" y="371.9684">appartient</text></g><!--MD5=[564ea20c81718947a70be176d025d750]
link Billet to Voyage--><g id="link_Billet_Voyage"><path codeLine="81" d="M600.05,121.76 C608.8,153.71 619.51,192.85 627.41,221.68 " fill="none" id="Billet-Voyage" style="stroke:#181818;stroke-width:1.0;"/><line style="stroke:#181818;stroke-width:1.0;" x1="632.2727" x2="624.5563" y1="224.2863" y2="226.3973"/><line style="stroke:#181818;stroke-width:1.0;" x1="631.4811" x2="623.7647" y1="221.3926" y2="223.5036"/><line style="stroke:#181818;stroke-width:1.0;" x1="627.359" x2="629.47" y1="221.4835" y2="229.2"/><line style="stroke:#181818;stroke-width:1.0;" x1="600.1546" x2="592.2534" y1="122.1455" y2="116.016"/><line style="stroke:#181818;stroke-width:1.0;" x1="600.1546" x2="603.8266" y1="122.1455" y2="112.844"/><line style="stroke:#181818;stroke-width:1.0;" x1="600.1546" x2="598.04" y1="122.1455" y2="114.43"/><ellipse cx="601.7406" cy="127.9321" fill="none" rx="4" ry="4" style="stroke:#181818;stroke-width:1.0;"/><text fill="#000000" font-family="sans-serif" font-size="13" lengthAdjust="spacing" textLength="99" x="612.5" y="164.5284">est composé de</text></g><!--MD5=[2c0d9c8978b7657e9160aa0f7b7d1f61]
link Billet to OccurrenceVol--><g id="link_Billet_OccurrenceVol"><path codeLine="82" d="M546.25,120.45 C529.59,144.6 509.96,173.06 492.68,198.12 " fill="none" id="Billet-OccurrenceVol" style="stroke:#181818;stroke-width:1.0;"/><line style="stroke:#181818;stroke-width:1.0;" x1="493.8224" x2="487.2305" y1="203.5005" y2="198.9676"/><line style="stroke:#181818;stroke-width:1.0;" x1="495.5222" x2="488.9303" y1="201.0285" y2="196.4957"/><line style="stroke:#181818;stroke-width:1.0;" x1="492.7928" x2="488.26" y1="197.9381" y2="204.53"/><line style="stroke:#181818;stroke-width:1.0;" x1="546.1775" x2="545.7811" y1="120.5452" y2="110.5531"/><line style="stroke:#181818;stroke-width:1.0;" x1="546.1775" x2="555.6589" y1="120.5452" y2="117.3669"/><line style="stroke:#181818;stroke-width:1.0;" x1="546.1775" x2="550.72" y1="120.5452" y2="113.96"/><ellipse cx="542.7706" cy="125.4842" fill="none" rx="4" ry="4" style="stroke:#181818;stroke-width:1.0;"/><text fill="#000000" font-family="sans-serif" font-size="13" lengthAdjust="spacing" textLength="65" x="526.5" y="164.5284">billet pour</text></g><!--MD5=[b4c91264d542aaf72f26c92c4e358573]
link Voyage to Passager--><g id="link_Voyage_Passager"><path codeLine="84" d="M639.1,305.11 C639.48,331.03 639.98,365.29 640.42,395.84 " fill="none" id="Voyage-Passager" style="stroke:#181818;stroke-width:1.0;"/><line style="stroke:#181818;stroke-width:1.0;" x1="644.4825" x2="636.4833" y1="399.6133" y2="399.7275"/><line style="stroke:#181818;stroke-width:1.0;" x1="644.4396" x2="636.4404" y1="396.6136" y2="396.7279"/><line style="stroke:#181818;stroke-width:1.0;" x1="640.4257" x2="640.54" y1="395.6708" y2="403.67"/><line style="stroke:#181818;stroke-width:1.0;" x1="639.0943" x2="632.9806" y1="305.3392" y2="297.4257"/><line style="stroke:#181818;stroke-width:1.0;" x1="639.0943" x2="644.9794" y1="305.3392" y2="297.2543"/><line style="stroke:#181818;stroke-width:1.0;" x1="639.0943" x2="638.98" y1="305.3392" y2="297.34"/><ellipse cx="639.18" cy="311.3386" fill="none" rx="4" ry="4" style="stroke:#181818;stroke-width:1.0;"/><text fill="#000000" font-family="sans-serif" font-size="13" lengthAdjust="spacing" textLength="41" x="641.5" y="371.9684">achète</text></g><!--MD5=[67ce1bdf560c95682f90702db6ae92c7]
link Aeroport to Pays--><g id="link_Aeroport_Pays"><path codeLine="86" d="M266.5,329.71 C266.5,359.2 266.5,393.41 266.5,420.62 " fill="none" id="Aeroport-Pays" style="stroke:#181818;stroke-width:1.0;"/><line style="stroke:#181818;stroke-width:1.0;" x1="270.5" x2="262.5" y1="424.42" y2="424.42"/><line style="stroke:#181818;stroke-width:1.0;" x1="270.5" x2="262.5" y1="421.42" y2="421.42"/><line style="stroke:#181818;stroke-width:1.0;" x1="266.5" x2="266.5" y1="420.42" y2="428.42"/><line style="stroke:#181818;stroke-width:1.0;" x1="266.5" x2="260.5" y1="330.1" y2="322.1"/><line style="stroke:#181818;stroke-width:1.0;" x1="266.5" x2="272.5" y1="330.1" y2="322.1"/><line style="stroke:#181818;stroke-width:1.0;" x1="266.5" x2="266.5" y1="330.1" y2="322.1"/><ellipse cx="266.5" cy="336.1" fill="none" rx="4" ry="4" style="stroke:#181818;stroke-width:1.0;"/><text fill="#000000" font-family="sans-serif" font-size="13" lengthAdjust="spacing" textLength="81" x="267.5" y="371.9684">est domicilié</text></g><!--MD5=[16a021df941bbae1830b4d3c2986cacd]
link OccurrenceVol to DonneesTranspondeur--><g id="link_OccurrenceVol_DonneesTranspondeur"><path codeLine="88" d="M448.5,329.71 C448.5,359.2 448.5,393.41 448.5,420.62 " fill="none" id="OccurrenceVol-DonneesTranspondeur" style="stroke:#181818;stroke-width:1.0;"/><line style="stroke:#181818;stroke-width:1.0;" x1="448.5" x2="454.5" y1="420.42" y2="428.42"/><line style="stroke:#181818;stroke-width:1.0;" x1="448.5" x2="442.5" y1="420.42" y2="428.42"/><line style="stroke:#181818;stroke-width:1.0;" x1="448.5" x2="448.5" y1="420.42" y2="428.42"/><ellipse cx="448.5" cy="414.42" fill="none" rx="4" ry="4" style="stroke:#181818;stroke-width:1.0;"/><line style="stroke:#181818;stroke-width:1.0;" x1="444.5" x2="452.5" y1="326.1" y2="326.1"/><line style="stroke:#181818;stroke-width:1.0;" x1="444.5" x2="452.5" y1="329.1" y2="329.1"/><line style="stroke:#181818;stroke-width:1.0;" x1="448.5" x2="448.5" y1="330.1" y2="322.1"/><text fill="#000000" font-family="sans-serif" font-size="13" lengthAdjust="spacing" textLength="139" x="449.5" y="371.9684">transmet des données</text></g><!--MD5=[54c5bbfc82dfac6c841aea4b2ab86407]
link RevisionAvion to Avion--><g id="link_RevisionAvion_Avion"><path codeLine="90" d="M95.5,122.46 C95.5,142.95 95.5,166.33 95.5,188.02 " fill="none" id="RevisionAvion-Avion" style="stroke:#181818;stroke-width:1.0;"/><line style="stroke:#181818;stroke-width:1.0;" x1="99.5" x2="91.5" y1="192.01" y2="192.01"/><line style="stroke:#181818;stroke-width:1.0;" x1="99.5" x2="91.5" y1="189.01" y2="189.01"/><line style="stroke:#181818;stroke-width:1.0;" x1="95.5" x2="95.5" y1="188.01" y2="196.01"/><line style="stroke:#181818;stroke-width:1.0;" x1="95.5" x2="89.5" y1="122.48" y2="114.48"/><line style="stroke:#181818;stroke-width:1.0;" x1="95.5" x2="101.5" y1="122.48" y2="114.48"/><line style="stroke:#181818;stroke-width:1.0;" x1="95.5" x2="95.5" y1="122.48" y2="114.48"/><ellipse cx="95.5" cy="128.48" fill="none" rx="4" ry="4" style="stroke:#181818;stroke-width:1.0;"/><text fill="#000000" font-family="sans-serif" font-size="13" lengthAdjust="spacing" textLength="71" x="96.5" y="164.5284">a été révisé</text></g><!--MD5=[82c5c4ab2694514fed7e9ac0afbf0292]
@startuml erd_airline_reservation_logique

entity Pays {
    codeISO
    descriptionFr
}

entity Avion {
    marque
    numero
    type
    nombrePlaces
    dateAchat
}

entity Aeroport {
    code
    nom
    ville
    pays
}

entity OccurrenceVol {
    dateDepartPrevue
    dateArriveePrevue
    dateDepartReelle
    dateArriveeReelle
}

entity Vol {
    numero
    dureeMoyenne
    aeroportDepart
    aeroportArrivee
}

entity DonneesTranspondeur {
    date
    coordonnees
}

entity RevisionAvion {
    date
    peutVoler
    type 
    ' https://fr.wikipedia.org/wiki/Visites_de_maintenance_des_avions
    ' A : / mois ou 500h de vol
    ' C : 
}

entity CompagnieAerienne {
    nom
    abreviation
}

entity Voyage {
    prix
}

entity Billet {
    rang
    siege
    classe
}

entity Passager {
    nom
    prenom
    dateNaissance
    age
    numeroPassport
'    dateAutorisationParentale
}

Vol }o- -|| Aeroport: arrive
Vol }o- -|| Aeroport: part
Vol }o- -|| Avion: a
Vol ||- -o{ OccurrenceVol: est réalisé

Avion }o- -|| CompagnieAerienne: appartient

Billet }o- -|| Voyage: est composé de
Billet }o- -|| OccurrenceVol: billet pour

Voyage }o- -|| Passager: achète

Aeroport }o- -|| Pays: est domicilié

OccurrenceVol ||- -o{ DonneesTranspondeur: transmet des données

RevisionAvion }o- -|| Avion: a été révisé

@enduml

@startuml erd_airline_reservation_logique

entity Pays {
    codeISO
    descriptionFr
}

entity Avion {
    marque
    numero
    type
    nombrePlaces
    dateAchat
}

entity Aeroport {
    code
    nom
    ville
    pays
}

entity OccurrenceVol {
    dateDepartPrevue
    dateArriveePrevue
    dateDepartReelle
    dateArriveeReelle
}

entity Vol {
    numero
    dureeMoyenne
    aeroportDepart
    aeroportArrivee
}

entity DonneesTranspondeur {
    date
    coordonnees
}

entity RevisionAvion {
    date
    peutVoler
    type 
}

entity CompagnieAerienne {
    nom
    abreviation
}

entity Voyage {
    prix
}

entity Billet {
    rang
    siege
    classe
}

entity Passager {
    nom
    prenom
    dateNaissance
    age
    numeroPassport
}

Vol }o- -|| Aeroport: arrive
Vol }o- -|| Aeroport: part
Vol }o- -|| Avion: a
Vol ||- -o{ OccurrenceVol: est réalisé

Avion }o- -|| CompagnieAerienne: appartient

Billet }o- -|| Voyage: est composé de
Billet }o- -|| OccurrenceVol: billet pour

Voyage }o- -|| Passager: achète

Aeroport }o- -|| Pays: est domicilié

OccurrenceVol ||- -o{ DonneesTranspondeur: transmet des données

RevisionAvion }o- -|| Avion: a été révisé

@enduml

PlantUML version 1.2022.7(Mon Aug 22 13:01:30 EDT 2022)
(GPL source distribution)
Java Runtime: OpenJDK Runtime Environment
JVM: OpenJDK 64-Bit Server VM
Default Encoding: UTF-8
Language: fr
Country: CA
--></g></svg>