<?xml version="1.0" encoding="UTF-8" standalone="no"?><svg xmlns="http://www.w3.org/2000/svg" xmlns:xlink="http://www.w3.org/1999/xlink" contentStyleType="text/css" height="700px" preserveAspectRatio="none" style="width:713px;height:700px;background:#FFFFFF;" version="1.1" viewBox="0 0 713 700" width="713px" zoomAndPan="magnify"><defs/><g><!--MD5=[aa2bb12b1d34009d39b42a242f861e93]
class Pays--><g id="elem_Pays"><rect codeLine="2" fill="#F1F1F1" height="80.9766" id="Pays" rx="2.5" ry="2.5" style="stroke:#181818;stroke-width:0.5;" width="103" x="7" y="422"/><ellipse cx="40.45" cy="438" fill="#ADD1B2" rx="11" ry="11" style="stroke:#181818;stroke-width:1.0;"/><path d="M44.0643,444.5 L36.3445,444.5 L36.3445,432.1069 L44.0643,432.1069 L44.0643,434.2651 L38.7933,434.2651 L38.7933,436.938 L43.5662,436.938 L43.5662,439.0962 L38.7933,439.0962 L38.7933,442.3418 L44.0643,442.3418 Z " fill="#000000"/><text fill="#000000" font-family="sans-serif" font-size="14" lengthAdjust="spacing" textLength="30" x="58.55" y="443.291">Pays</text><line style="stroke:#181818;stroke-width:0.5;" x1="8" x2="109" y1="454" y2="454"/><text fill="#000000" font-family="sans-serif" font-size="14" lengthAdjust="spacing" textLength="56" x="13" y="471.5352">codeISO</text><text fill="#000000" font-family="sans-serif" font-size="14" lengthAdjust="spacing" textLength="91" x="13" y="488.0234">descriptionFr</text><line style="stroke:#181818;stroke-width:0.5;" x1="8" x2="109" y1="494.9766" y2="494.9766"/></g><!--MD5=[93e6ce547ff226cccf2c6dd7385ec68f]
class Aeroport--><g id="elem_Aeroport"><rect codeLine="7" fill="#F1F1F1" height="113.9531" id="Aeroport" rx="2.5" ry="2.5" style="stroke:#181818;stroke-width:0.5;" width="94" x="35.5" y="198"/><ellipse cx="50.5" cy="214" fill="#ADD1B2" rx="11" ry="11" style="stroke:#181818;stroke-width:1.0;"/><path d="M54.1143,220.5 L46.3945,220.5 L46.3945,208.1069 L54.1143,208.1069 L54.1143,210.2651 L48.8433,210.2651 L48.8433,212.938 L53.6162,212.938 L53.6162,215.0962 L48.8433,215.0962 L48.8433,218.3418 L54.1143,218.3418 Z " fill="#000000"/><text fill="#000000" font-family="sans-serif" font-size="14" lengthAdjust="spacing" textLength="62" x="64.5" y="219.291">Aeroport</text><line style="stroke:#181818;stroke-width:0.5;" x1="36.5" x2="128.5" y1="230" y2="230"/><text fill="#000000" font-family="sans-serif" font-size="14" lengthAdjust="spacing" textLength="33" x="41.5" y="247.5352">code</text><text fill="#000000" font-family="sans-serif" font-size="14" lengthAdjust="spacing" textLength="31" x="41.5" y="264.0234">nom</text><text fill="#000000" font-family="sans-serif" font-size="14" lengthAdjust="spacing" textLength="27" x="41.5" y="280.5117">ville</text><text fill="#000000" font-family="sans-serif" font-size="14" lengthAdjust="spacing" textLength="31" x="41.5" y="297">pays</text><line style="stroke:#181818;stroke-width:0.5;" x1="36.5" x2="128.5" y1="303.9531" y2="303.9531"/></g><!--MD5=[441ae960a862e573906b3bd2852bbbcc]
class OccurrenceVol--><g id="elem_OccurrenceVol"><rect codeLine="14" fill="#F1F1F1" height="113.9531" id="OccurrenceVol" rx="2.5" ry="2.5" style="stroke:#181818;stroke-width:0.5;" width="137" x="211" y="198"/><ellipse cx="228.25" cy="214" fill="#ADD1B2" rx="11" ry="11" style="stroke:#181818;stroke-width:1.0;"/><path d="M231.8643,220.5 L224.1445,220.5 L224.1445,208.1069 L231.8643,208.1069 L231.8643,210.2651 L226.5933,210.2651 L226.5933,212.938 L231.3662,212.938 L231.3662,215.0962 L226.5933,215.0962 L226.5933,218.3418 L231.8643,218.3418 Z " fill="#000000"/><text fill="#000000" font-family="sans-serif" font-size="14" lengthAdjust="spacing" textLength="100" x="242.75" y="219.291">OccurrenceVol</text><line style="stroke:#181818;stroke-width:0.5;" x1="212" x2="347" y1="230" y2="230"/><text fill="#000000" font-family="sans-serif" font-size="14" lengthAdjust="spacing" textLength="122" x="217" y="247.5352">dateDepartPrevue</text><text fill="#000000" font-family="sans-serif" font-size="14" lengthAdjust="spacing" textLength="125" x="217" y="264.0234">dateArriveePrevue</text><text fill="#000000" font-family="sans-serif" font-size="14" lengthAdjust="spacing" textLength="117" x="217" y="280.5117">dateDepartReelle</text><text fill="#000000" font-family="sans-serif" font-size="14" lengthAdjust="spacing" textLength="120" x="217" y="297">dateArriveeReelle</text><line style="stroke:#181818;stroke-width:0.5;" x1="212" x2="347" y1="303.9531" y2="303.9531"/></g><!--MD5=[faefaeeaeee21baa303d48d30d35547c]
class Vol--><g id="elem_Vol"><rect codeLine="21" fill="#F1F1F1" height="113.9531" id="Vol" rx="2.5" ry="2.5" style="stroke:#181818;stroke-width:0.5;" width="121" x="99" y="7"/><ellipse cx="144.25" cy="23" fill="#ADD1B2" rx="11" ry="11" style="stroke:#181818;stroke-width:1.0;"/><path d="M147.8643,29.5 L140.1445,29.5 L140.1445,17.1069 L147.8643,17.1069 L147.8643,19.2651 L142.5933,19.2651 L142.5933,21.938 L147.3662,21.938 L147.3662,24.0962 L142.5933,24.0962 L142.5933,27.3418 L147.8643,27.3418 Z " fill="#000000"/><text fill="#000000" font-family="sans-serif" font-size="14" lengthAdjust="spacing" textLength="22" x="164.75" y="28.291">Vol</text><line style="stroke:#181818;stroke-width:0.5;" x1="100" x2="219" y1="39" y2="39"/><text fill="#000000" font-family="sans-serif" font-size="14" lengthAdjust="spacing" textLength="54" x="105" y="56.5352">numero</text><text fill="#000000" font-family="sans-serif" font-size="14" lengthAdjust="spacing" textLength="102" x="105" y="73.0234">dureeMoyenne</text><text fill="#000000" font-family="sans-serif" font-size="14" lengthAdjust="spacing" textLength="106" x="105" y="89.5117">aeroportDepart</text><text fill="#000000" font-family="sans-serif" font-size="14" lengthAdjust="spacing" textLength="109" x="105" y="106">aeroportArrivee</text><line style="stroke:#181818;stroke-width:0.5;" x1="100" x2="219" y1="112.9531" y2="112.9531"/></g><!--MD5=[7c8ba23bb7be92d44dd1be9ab48aedaf]
class DonneesTranspondeur--><g id="elem_DonneesTranspondeur"><rect codeLine="28" fill="#F1F1F1" height="80.9766" id="DonneesTranspondeur" rx="2.5" ry="2.5" style="stroke:#181818;stroke-width:0.5;" width="190" x="145.5" y="422"/><ellipse cx="160.5" cy="438" fill="#ADD1B2" rx="11" ry="11" style="stroke:#181818;stroke-width:1.0;"/><path d="M164.1143,444.5 L156.3945,444.5 L156.3945,432.1069 L164.1143,432.1069 L164.1143,434.2651 L158.8433,434.2651 L158.8433,436.938 L163.6162,436.938 L163.6162,439.0962 L158.8433,439.0962 L158.8433,442.3418 L164.1143,442.3418 Z " fill="#000000"/><text fill="#000000" font-family="sans-serif" font-size="14" lengthAdjust="spacing" textLength="158" x="174.5" y="443.291">DonneesTranspondeur</text><line style="stroke:#181818;stroke-width:0.5;" x1="146.5" x2="334.5" y1="454" y2="454"/><text fill="#000000" font-family="sans-serif" font-size="14" lengthAdjust="spacing" textLength="30" x="151.5" y="471.5352">date</text><text fill="#000000" font-family="sans-serif" font-size="14" lengthAdjust="spacing" textLength="90" x="151.5" y="488.0234">coordonnees</text><line style="stroke:#181818;stroke-width:0.5;" x1="146.5" x2="334.5" y1="494.9766" y2="494.9766"/></g><!--MD5=[01f9a401cf506495089c678bd476f389]
class Avion--><g id="elem_Avion"><rect codeLine="33" fill="#F1F1F1" height="130.4414" id="Avion" rx="2.5" ry="2.5" style="stroke:#181818;stroke-width:0.5;" width="108" x="371.5" y="397.5"/><ellipse cx="403.15" cy="413.5" fill="#ADD1B2" rx="11" ry="11" style="stroke:#181818;stroke-width:1.0;"/><path d="M406.7643,420 L399.0445,420 L399.0445,407.6069 L406.7643,407.6069 L406.7643,409.7651 L401.4933,409.7651 L401.4933,412.438 L406.2662,412.438 L406.2662,414.5962 L401.4933,414.5962 L401.4933,417.8418 L406.7643,417.8418 Z " fill="#000000"/><text fill="#000000" font-family="sans-serif" font-size="14" lengthAdjust="spacing" textLength="39" x="420.85" y="418.791">Avion</text><line style="stroke:#181818;stroke-width:0.5;" x1="372.5" x2="478.5" y1="429.5" y2="429.5"/><text fill="#000000" font-family="sans-serif" font-size="14" lengthAdjust="spacing" textLength="53" x="377.5" y="447.0352">marque</text><text fill="#000000" font-family="sans-serif" font-size="14" lengthAdjust="spacing" textLength="54" x="377.5" y="463.5234">numero</text><text fill="#000000" font-family="sans-serif" font-size="14" lengthAdjust="spacing" textLength="29" x="377.5" y="480.0117">type</text><text fill="#000000" font-family="sans-serif" font-size="14" lengthAdjust="spacing" textLength="96" x="377.5" y="496.5">nombrePlaces</text><text fill="#000000" font-family="sans-serif" font-size="14" lengthAdjust="spacing" textLength="69" x="377.5" y="512.9883">dateAchat</text><line style="stroke:#181818;stroke-width:0.5;" x1="372.5" x2="478.5" y1="519.9414" y2="519.9414"/></g><!--MD5=[0beb38d25f87035279933f69d2939b10]
class RevisionAvion--><g id="elem_RevisionAvion"><rect codeLine="41" fill="#F1F1F1" height="97.4648" id="RevisionAvion" rx="2.5" ry="2.5" style="stroke:#181818;stroke-width:0.5;" width="128" x="406.5" y="206.5"/><ellipse cx="421.5" cy="222.5" fill="#ADD1B2" rx="11" ry="11" style="stroke:#181818;stroke-width:1.0;"/><path d="M425.1143,229 L417.3945,229 L417.3945,216.6069 L425.1143,216.6069 L425.1143,218.7651 L419.8433,218.7651 L419.8433,221.438 L424.6162,221.438 L424.6162,223.5962 L419.8433,223.5962 L419.8433,226.8418 L425.1143,226.8418 Z " fill="#000000"/><text fill="#000000" font-family="sans-serif" font-size="14" lengthAdjust="spacing" textLength="96" x="435.5" y="227.791">RevisionAvion</text><line style="stroke:#181818;stroke-width:0.5;" x1="407.5" x2="533.5" y1="238.5" y2="238.5"/><text fill="#000000" font-family="sans-serif" font-size="14" lengthAdjust="spacing" textLength="30" x="412.5" y="256.0352">date</text><text fill="#000000" font-family="sans-serif" font-size="14" lengthAdjust="spacing" textLength="67" x="412.5" y="272.5234">peutVoler</text><text fill="#000000" font-family="sans-serif" font-size="14" lengthAdjust="spacing" textLength="29" x="412.5" y="289.0117">type</text><line style="stroke:#181818;stroke-width:0.5;" x1="407.5" x2="533.5" y1="295.9648" y2="295.9648"/></g><!--MD5=[d2a5054efb8cf591ccfcc95591a5345c]
class CompagnieAerienne--><g id="elem_CompagnieAerienne"><rect codeLine="50" fill="#F1F1F1" height="80.9766" id="CompagnieAerienne" rx="2.5" ry="2.5" style="stroke:#181818;stroke-width:0.5;" width="173" x="339" y="613"/><ellipse cx="354" cy="629" fill="#ADD1B2" rx="11" ry="11" style="stroke:#181818;stroke-width:1.0;"/><path d="M357.6143,635.5 L349.8945,635.5 L349.8945,623.1069 L357.6143,623.1069 L357.6143,625.2651 L352.3433,625.2651 L352.3433,627.938 L357.1162,627.938 L357.1162,630.0962 L352.3433,630.0962 L352.3433,633.3418 L357.6143,633.3418 Z " fill="#000000"/><text fill="#000000" font-family="sans-serif" font-size="14" lengthAdjust="spacing" textLength="141" x="368" y="634.291">CompagnieAerienne</text><line style="stroke:#181818;stroke-width:0.5;" x1="340" x2="511" y1="645" y2="645"/><text fill="#000000" font-family="sans-serif" font-size="14" lengthAdjust="spacing" textLength="31" x="345" y="662.5352">nom</text><text fill="#000000" font-family="sans-serif" font-size="14" lengthAdjust="spacing" textLength="77" x="345" y="679.0234">abreviation</text><line style="stroke:#181818;stroke-width:0.5;" x1="340" x2="511" y1="685.9766" y2="685.9766"/></g><!--MD5=[2b591347219e2d308bdf301555c4d62b]
class Voyage--><g id="elem_Voyage"><rect codeLine="55" fill="#F1F1F1" height="64.4883" id="Voyage" rx="2.5" ry="2.5" style="stroke:#181818;stroke-width:0.5;" width="82" x="569.5" y="223"/><ellipse cx="584.5" cy="239" fill="#ADD1B2" rx="11" ry="11" style="stroke:#181818;stroke-width:1.0;"/><path d="M588.1143,245.5 L580.3945,245.5 L580.3945,233.1069 L588.1143,233.1069 L588.1143,235.2651 L582.8433,235.2651 L582.8433,237.938 L587.6162,237.938 L587.6162,240.0962 L582.8433,240.0962 L582.8433,243.3418 L588.1143,243.3418 Z " fill="#000000"/><text fill="#000000" font-family="sans-serif" font-size="14" lengthAdjust="spacing" textLength="50" x="598.5" y="244.291">Voyage</text><line style="stroke:#181818;stroke-width:0.5;" x1="570.5" x2="650.5" y1="255" y2="255"/><text fill="#000000" font-family="sans-serif" font-size="14" lengthAdjust="spacing" textLength="28" x="575.5" y="272.5352">prix</text><line style="stroke:#181818;stroke-width:0.5;" x1="570.5" x2="650.5" y1="279.4883" y2="279.4883"/></g><!--MD5=[2f53d364b4e3b7d802afc29f72dce69f]
class Billet--><g id="elem_Billet"><rect codeLine="59" fill="#F1F1F1" height="97.4648" id="Billet" rx="2.5" ry="2.5" style="stroke:#181818;stroke-width:0.5;" width="65" x="418" y="15.5"/><ellipse cx="433" cy="31.5" fill="#ADD1B2" rx="11" ry="11" style="stroke:#181818;stroke-width:1.0;"/><path d="M436.6143,38 L428.8945,38 L428.8945,25.6069 L436.6143,25.6069 L436.6143,27.7651 L431.3433,27.7651 L431.3433,30.438 L436.1162,30.438 L436.1162,32.5962 L431.3433,32.5962 L431.3433,35.8418 L436.6143,35.8418 Z " fill="#000000"/><text fill="#000000" font-family="sans-serif" font-size="14" lengthAdjust="spacing" textLength="33" x="447" y="36.791">Billet</text><line style="stroke:#181818;stroke-width:0.5;" x1="419" x2="482" y1="47.5" y2="47.5"/><text fill="#000000" font-family="sans-serif" font-size="14" lengthAdjust="spacing" textLength="32" x="424" y="65.0352">rang</text><text fill="#000000" font-family="sans-serif" font-size="14" lengthAdjust="spacing" textLength="36" x="424" y="81.5234">siege</text><text fill="#000000" font-family="sans-serif" font-size="14" lengthAdjust="spacing" textLength="41" x="424" y="98.0117">classe</text><line style="stroke:#181818;stroke-width:0.5;" x1="419" x2="482" y1="104.9648" y2="104.9648"/></g><!--MD5=[ff1aec9047438da9d3e23b981a7faa18]
class Passager--><g id="elem_Passager"><rect codeLine="65" fill="#F1F1F1" height="146.9297" id="Passager" rx="2.5" ry="2.5" style="stroke:#181818;stroke-width:0.5;" width="191" x="515" y="389"/><ellipse cx="575.75" cy="405" fill="#ADD1B2" rx="11" ry="11" style="stroke:#181818;stroke-width:1.0;"/><path d="M579.3643,411.5 L571.6445,411.5 L571.6445,399.1069 L579.3643,399.1069 L579.3643,401.2651 L574.0933,401.2651 L574.0933,403.938 L578.8662,403.938 L578.8662,406.0962 L574.0933,406.0962 L574.0933,409.3418 L579.3643,409.3418 Z " fill="#000000"/><text fill="#000000" font-family="sans-serif" font-size="14" lengthAdjust="spacing" textLength="61" x="596.25" y="410.291">Passager</text><line style="stroke:#181818;stroke-width:0.5;" x1="516" x2="705" y1="421" y2="421"/><text fill="#000000" font-family="sans-serif" font-size="14" lengthAdjust="spacing" textLength="31" x="521" y="438.5352">nom</text><text fill="#000000" font-family="sans-serif" font-size="14" lengthAdjust="spacing" textLength="54" x="521" y="455.0234">prenom</text><text fill="#000000" font-family="sans-serif" font-size="14" lengthAdjust="spacing" textLength="98" x="521" y="471.5117">dateNaissance</text><text fill="#000000" font-family="sans-serif" font-size="14" lengthAdjust="spacing" textLength="25" x="521" y="488">age</text><text fill="#000000" font-family="sans-serif" font-size="14" lengthAdjust="spacing" textLength="113" x="521" y="504.4883">numeroPassport</text><text fill="#000000" font-family="sans-serif" font-size="14" lengthAdjust="spacing" textLength="179" x="521" y="520.9766">dateAutorisationParentale</text><line style="stroke:#181818;stroke-width:0.5;" x1="516" x2="705" y1="527.9297" y2="527.9297"/></g><!--MD5=[3efb8c8a00f7f3128b29f99bea7c7795]
link Vol to Aeroport--><g id="link_Vol_Aeroport"><path codeLine="74" d="M93.5,125.69 C87.86,133.65 82.98,142.14 79.5,151 C74.92,162.66 73.07,175.64 72.79,188.35 " fill="none" id="Vol-Aeroport" style="stroke:#181818;stroke-width:1.0;"/><line style="stroke:#181818;stroke-width:1.0;" x1="76.8213" x2="68.8215" y1="192.0015" y2="192.0587"/><line style="stroke:#181818;stroke-width:1.0;" x1="76.7999" x2="68.8001" y1="189.0016" y2="189.0587"/><line style="stroke:#181818;stroke-width:1.0;" x1="72.7929" x2="72.85" y1="188.0302" y2="196.03"/><line style="stroke:#181818;stroke-width:1.0;" x1="93.1709" x2="93.1851" y1="126.1331" y2="116.1332"/><line style="stroke:#181818;stroke-width:1.0;" x1="93.1709" x2="102.7749" y1="126.1331" y2="123.3468"/><line style="stroke:#181818;stroke-width:1.0;" x1="93.1709" x2="97.98" y1="126.1331" y2="119.74"/><ellipse cx="89.564" cy="130.928" fill="none" rx="4" ry="4" style="stroke:#181818;stroke-width:1.0;"/><text fill="#000000" font-family="sans-serif" font-size="13" lengthAdjust="spacing" textLength="35" x="80.5" y="164.5684">arrive</text></g><!--MD5=[3efb8c8a00f7f3128b29f99bea7c7795]
link Vol to Aeroport--><g id="link_Vol_Aeroport"><path codeLine="75" d="M135.5,130.01 C130.65,142.66 125.51,155.78 120.5,168 C117.65,174.95 114.6,182.18 111.51,189.36 " fill="none" id="Vol-Aeroport-1" style="stroke:#181818;stroke-width:1.0;"/><line style="stroke:#181818;stroke-width:1.0;" x1="113.7381" x2="106.3939" y1="194.2739" y2="191.1019"/><line style="stroke:#181818;stroke-width:1.0;" x1="114.9277" x2="107.5834" y1="191.5198" y2="188.3478"/><line style="stroke:#181818;stroke-width:1.0;" x1="111.652" x2="108.48" y1="189.0157" y2="196.36"/><line style="stroke:#181818;stroke-width:1.0;" x1="135.4198" x2="132.6509" y1="130.2388" y2="120.6298"/><line style="stroke:#181818;stroke-width:1.0;" x1="135.4198" x2="143.8691" y1="130.2388" y2="124.8902"/><line style="stroke:#181818;stroke-width:1.0;" x1="135.4198" x2="138.26" y1="130.2388" y2="122.76"/><ellipse cx="133.2896" cy="135.848" fill="none" rx="4" ry="4" style="stroke:#181818;stroke-width:1.0;"/><text fill="#000000" font-family="sans-serif" font-size="13" lengthAdjust="spacing" textLength="25" x="128.5" y="164.5684">part</text></g><!--MD5=[c0340e19428f123b5e09bc2c849701aa]
link Vol to OccurrenceVol--><g id="link_Vol_OccurrenceVol"><path codeLine="77" d="M200.43,129.47 C212.76,148.89 226.29,170.19 238.62,189.61 " fill="none" id="Vol-OccurrenceVol" style="stroke:#181818;stroke-width:1.0;"/><line style="stroke:#181818;stroke-width:1.0;" x1="238.5352" x2="247.8868" y1="189.4842" y2="193.0264"/><line style="stroke:#181818;stroke-width:1.0;" x1="238.5352" x2="237.7532" y1="189.4842" y2="199.4536"/><line style="stroke:#181818;stroke-width:1.0;" x1="238.5352" x2="242.82" y1="189.4842" y2="196.24"/><ellipse cx="235.3215" cy="184.4174" fill="none" rx="4" ry="4" style="stroke:#181818;stroke-width:1.0;"/><line style="stroke:#181818;stroke-width:1.0;" x1="194.9198" x2="201.6715" y1="128.2515" y2="123.9602"/><line style="stroke:#181818;stroke-width:1.0;" x1="196.5291" x2="203.2807" y1="130.7833" y2="126.492"/><line style="stroke:#181818;stroke-width:1.0;" x1="200.4413" x2="196.15" y1="129.4816" y2="122.73"/><text fill="#000000" font-family="sans-serif" font-size="13" lengthAdjust="spacing" textLength="64" x="224.5" y="164.5684">est réalisé</text></g><!--MD5=[e55b83172bdec7a47a4aba08b4c97b03]
link Avion to CompagnieAerienne--><g id="link_Avion_CompagnieAerienne"><path codeLine="79" d="M425.5,537.11 C425.5,559.32 425.5,583.15 425.5,603.35 " fill="none" id="Avion-CompagnieAerienne" style="stroke:#181818;stroke-width:1.0;"/><line style="stroke:#181818;stroke-width:1.0;" x1="429.5" x2="421.5" y1="607.14" y2="607.14"/><line style="stroke:#181818;stroke-width:1.0;" x1="429.5" x2="421.5" y1="604.14" y2="604.14"/><line style="stroke:#181818;stroke-width:1.0;" x1="425.5" x2="425.5" y1="603.14" y2="611.14"/><line style="stroke:#181818;stroke-width:1.0;" x1="425.5" x2="419.5" y1="537.26" y2="529.26"/><line style="stroke:#181818;stroke-width:1.0;" x1="425.5" x2="431.5" y1="537.26" y2="529.26"/><line style="stroke:#181818;stroke-width:1.0;" x1="425.5" x2="425.5" y1="537.26" y2="529.26"/><ellipse cx="425.5" cy="543.26" fill="none" rx="4" ry="4" style="stroke:#181818;stroke-width:1.0;"/><text fill="#000000" font-family="sans-serif" font-size="13" lengthAdjust="spacing" textLength="64" x="426.5" y="579.5684">appartient</text></g><!--MD5=[564ea20c81718947a70be176d025d750]
link Billet to Voyage--><g id="link_Billet_Voyage"><path codeLine="81" d="M489.35,110.9 C516.48,142.94 552.28,185.22 577.91,215.5 " fill="none" id="Billet-Voyage" style="stroke:#181818;stroke-width:1.0;"/><line style="stroke:#181818;stroke-width:1.0;" x1="583.3545" x2="577.2522" y1="215.7522" y2="220.9255"/><line style="stroke:#181818;stroke-width:1.0;" x1="581.4145" x2="575.3123" y1="213.4639" y2="218.6372"/><line style="stroke:#181818;stroke-width:1.0;" x1="577.7167" x2="582.89" y1="215.2878" y2="221.39"/><line style="stroke:#181818;stroke-width:1.0;" x1="489.4063" x2="479.6589" y1="110.9682" y2="108.7347"/><line style="stroke:#181818;stroke-width:1.0;" x1="489.4063" x2="488.8211" y1="110.9682" y2="100.9853"/><line style="stroke:#181818;stroke-width:1.0;" x1="489.4063" x2="484.24" y1="110.9682" y2="104.86"/><ellipse cx="493.281" cy="115.5493" fill="none" rx="4" ry="4" style="stroke:#181818;stroke-width:1.0;"/><text fill="#000000" font-family="sans-serif" font-size="13" lengthAdjust="spacing" textLength="99" x="536.5" y="164.5684">est composé de</text></g><!--MD5=[2c0d9c8978b7657e9160aa0f7b7d1f61]
link Billet to OccurrenceVol--><g id="link_Billet_OccurrenceVol"><path codeLine="82" d="M411.28,108.35 C389.19,132.77 361.19,163.71 336.69,190.79 " fill="none" id="Billet-OccurrenceVol" style="stroke:#181818;stroke-width:1.0;"/><line style="stroke:#181818;stroke-width:1.0;" x1="337.21" x2="331.2814" y1="196.1814" y2="190.81"/><line style="stroke:#181818;stroke-width:1.0;" x1="339.2243" x2="333.2957" y1="193.9582" y2="188.5868"/><line style="stroke:#181818;stroke-width:1.0;" x1="336.9314" x2="331.56" y1="190.5314" y2="196.46"/><line style="stroke:#181818;stroke-width:1.0;" x1="411.1464" x2="412.0582" y1="108.4957" y2="98.5373"/><line style="stroke:#181818;stroke-width:1.0;" x1="411.1464" x2="420.9618" y1="108.4957" y2="106.5827"/><line style="stroke:#181818;stroke-width:1.0;" x1="411.1464" x2="416.51" y1="108.4957" y2="102.56"/><ellipse cx="407.1238" cy="112.9474" fill="none" rx="4" ry="4" style="stroke:#181818;stroke-width:1.0;"/><text fill="#000000" font-family="sans-serif" font-size="13" lengthAdjust="spacing" textLength="65" x="371.5" y="164.5684">billet pour</text></g><!--MD5=[b4c91264d542aaf72f26c92c4e358573]
link Voyage to Passager--><g id="link_Voyage_Passager"><path codeLine="84" d="M610.5,296.46 C610.5,320.12 610.5,350.87 610.5,379.4 " fill="none" id="Voyage-Passager" style="stroke:#181818;stroke-width:1.0;"/><line style="stroke:#181818;stroke-width:1.0;" x1="614.5" x2="606.5" y1="383.06" y2="383.06"/><line style="stroke:#181818;stroke-width:1.0;" x1="614.5" x2="606.5" y1="380.06" y2="380.06"/><line style="stroke:#181818;stroke-width:1.0;" x1="610.5" x2="610.5" y1="379.06" y2="387.06"/><line style="stroke:#181818;stroke-width:1.0;" x1="610.5" x2="604.5" y1="296.72" y2="288.72"/><line style="stroke:#181818;stroke-width:1.0;" x1="610.5" x2="616.5" y1="296.72" y2="288.72"/><line style="stroke:#181818;stroke-width:1.0;" x1="610.5" x2="610.5" y1="296.72" y2="288.72"/><ellipse cx="610.5" cy="302.72" fill="none" rx="4" ry="4" style="stroke:#181818;stroke-width:1.0;"/><text fill="#000000" font-family="sans-serif" font-size="13" lengthAdjust="spacing" textLength="41" x="611.5" y="355.5684">achète</text></g><!--MD5=[67ce1bdf560c95682f90702db6ae92c7]
link Aeroport to Pays--><g id="link_Aeroport_Pays"><path codeLine="86" d="M74.84,321.55 C71.4,351.05 67.4,385.26 64.22,412.48 " fill="none" id="Aeroport-Pays" style="stroke:#181818;stroke-width:1.0;"/><line style="stroke:#181818;stroke-width:1.0;" x1="67.7474" x2="59.8015" y1="416.7915" y2="415.8626"/><line style="stroke:#181818;stroke-width:1.0;" x1="68.0958" x2="60.1499" y1="413.8118" y2="412.8829"/><line style="stroke:#181818;stroke-width:1.0;" x1="64.2389" x2="63.31" y1="412.3541" y2="420.3"/><line style="stroke:#181818;stroke-width:1.0;" x1="74.8011" x2="69.7706" y1="321.8759" y2="313.2333"/><line style="stroke:#181818;stroke-width:1.0;" x1="74.8011" x2="81.6894" y1="321.8759" y2="314.6267"/><line style="stroke:#181818;stroke-width:1.0;" x1="74.8011" x2="75.73" y1="321.8759" y2="313.93"/><ellipse cx="74.1044" cy="327.8353" fill="none" rx="4" ry="4" style="stroke:#181818;stroke-width:1.0;"/><text fill="#000000" font-family="sans-serif" font-size="13" lengthAdjust="spacing" textLength="81" x="73.5" y="355.5684">est domicilié</text></g><!--MD5=[16a021df941bbae1830b4d3c2986cacd]
link OccurrenceVol to DonneesTranspondeur--><g id="link_OccurrenceVol_DonneesTranspondeur"><path codeLine="88" d="M243.98,321.13 C241.35,328.03 239.1,335.06 237.5,342 C232.25,364.72 232.18,390.52 233.77,412.32 " fill="none" id="OccurrenceVol-DonneesTranspondeur" style="stroke:#181818;stroke-width:1.0;"/><line style="stroke:#181818;stroke-width:1.0;" x1="233.7544" x2="240.4179" y1="412.2294" y2="419.6858"/><line style="stroke:#181818;stroke-width:1.0;" x1="233.7544" x2="228.4621" y1="412.2294" y2="420.7142"/><line style="stroke:#181818;stroke-width:1.0;" x1="233.7544" x2="234.44" y1="412.2294" y2="420.2"/><ellipse cx="233.2401" cy="406.2515" fill="none" rx="4" ry="4" style="stroke:#181818;stroke-width:1.0;"/><line style="stroke:#181818;stroke-width:1.0;" x1="241.7081" x2="249.119" y1="316.089" y2="319.1019"/><line style="stroke:#181818;stroke-width:1.0;" x1="240.5782" x2="247.9892" y1="318.8681" y2="321.8811"/><line style="stroke:#181818;stroke-width:1.0;" x1="243.9071" x2="246.92" y1="321.301" y2="313.89"/><text fill="#000000" font-family="sans-serif" font-size="13" lengthAdjust="spacing" textLength="139" x="238.5" y="355.5684">transmet des données</text></g><!--MD5=[d8bbd0cbdbf571697921252012beda0b]
link OccurrenceVol to Avion--><g id="link_OccurrenceVol_Avion"><path codeLine="89" d="M355.01,310.77 C365.16,320.37 374.72,330.88 382.5,342 C392.2,355.87 399.95,372.17 406.05,388.2 " fill="none" id="OccurrenceVol-Avion" style="stroke:#181818;stroke-width:1.0;"/><line style="stroke:#181818;stroke-width:1.0;" x1="411.1445" x2="403.625" y1="390.505" y2="393.2355"/><line style="stroke:#181818;stroke-width:1.0;" x1="410.1206" x2="402.601" y1="387.6851" y2="390.4156"/><line style="stroke:#181818;stroke-width:1.0;" x1="406.0195" x2="408.75" y1="388.1104" y2="395.63"/><line style="stroke:#181818;stroke-width:1.0;" x1="355.2849" x2="345.3337" y1="311.0184" y2="310.0311"/><line style="stroke:#181818;stroke-width:1.0;" x1="355.2849" x2="353.4463" y1="311.0184" y2="301.1889"/><line style="stroke:#181818;stroke-width:1.0;" x1="355.2849" x2="349.39" y1="311.0184" y2="305.61"/><ellipse cx="359.706" cy="315.0747" fill="none" rx="4" ry="4" style="stroke:#181818;stroke-width:1.0;"/><text fill="#000000" font-family="sans-serif" font-size="13" lengthAdjust="spacing" textLength="7" x="393.5" y="355.5684">a</text></g><!--MD5=[54c5bbfc82dfac6c841aea4b2ab86407]
link RevisionAvion to Avion--><g id="link_RevisionAvion_Avion"><path codeLine="92" d="M458.03,312.94 C452.94,336.21 446.98,363.41 441.56,388.14 " fill="none" id="RevisionAvion-Avion" style="stroke:#181818;stroke-width:1.0;"/><line style="stroke:#181818;stroke-width:1.0;" x1="444.6842" x2="436.87" y1="392.6" y2="390.8858"/><line style="stroke:#181818;stroke-width:1.0;" x1="445.3271" x2="437.5129" y1="389.6697" y2="387.9555"/><line style="stroke:#181818;stroke-width:1.0;" x1="441.6343" x2="439.92" y1="387.8358" y2="395.65"/><line style="stroke:#181818;stroke-width:1.0;" x1="457.9794" x2="453.8171" y1="313.2172" y2="304.1245"/><line style="stroke:#181818;stroke-width:1.0;" x1="457.9794" x2="465.5429" y1="313.2172" y2="306.6755"/><line style="stroke:#181818;stroke-width:1.0;" x1="457.9794" x2="459.68" y1="313.2172" y2="305.4"/><ellipse cx="456.7039" cy="319.08" fill="none" rx="4" ry="4" style="stroke:#181818;stroke-width:1.0;"/><text fill="#000000" font-family="sans-serif" font-size="13" lengthAdjust="spacing" textLength="71" x="452.5" y="355.5684">a été révisé</text></g><!--MD5=[6a07506943102098ca5e64be83e0177d]
@startuml erd_airline_reservation_logique

entity Pays {
    codeISO
    descriptionFr
}

entity Aeroport {
    code
    nom
    ville
    pays
}

entity OccurrenceVol {
    dateDepartPrevue
    dateArriveePrevue
    dateDepartReelle
    dateArriveeReelle
}

entity Vol {
    numero
    dureeMoyenne
    aeroportDepart
    aeroportArrivee
}

entity DonneesTranspondeur {
    date
    coordonnees
}

entity Avion {
    marque
    numero
    type
    nombrePlaces
    dateAchat
}

entity RevisionAvion {
    date
    peutVoler
    type 
    ' https://fr.wikipedia.org/wiki/Visites_de_maintenance_des_avions
    ' A : / mois ou 500h de vol
    ' C : 
}

entity CompagnieAerienne {
    nom
    abreviation
}

entity Voyage {
    prix
}

entity Billet {
    rang
    siege
    classe
}

entity Passager {
    nom
    prenom
    dateNaissance
    age
    numeroPassport
    dateAutorisationParentale
}

Vol }o- -|| Aeroport: arrive
Vol }o- -|| Aeroport: part
'Vol }o- -|| Avion: a
Vol ||- -o{ OccurrenceVol: est réalisé

Avion }o- -|| CompagnieAerienne: appartient

Billet }o- -|| Voyage: est composé de
Billet }o- -|| OccurrenceVol: billet pour

Voyage }o- -|| Passager: achète

Aeroport }o- -|| Pays: est domicilié

OccurrenceVol ||- -o{ DonneesTranspondeur: transmet des données
OccurrenceVol }o- -|| Avion: a


RevisionAvion }o- -|| Avion: a été révisé

@enduml

@startuml erd_airline_reservation_logique

entity Pays {
    codeISO
    descriptionFr
}

entity Aeroport {
    code
    nom
    ville
    pays
}

entity OccurrenceVol {
    dateDepartPrevue
    dateArriveePrevue
    dateDepartReelle
    dateArriveeReelle
}

entity Vol {
    numero
    dureeMoyenne
    aeroportDepart
    aeroportArrivee
}

entity DonneesTranspondeur {
    date
    coordonnees
}

entity Avion {
    marque
    numero
    type
    nombrePlaces
    dateAchat
}

entity RevisionAvion {
    date
    peutVoler
    type 
}

entity CompagnieAerienne {
    nom
    abreviation
}

entity Voyage {
    prix
}

entity Billet {
    rang
    siege
    classe
}

entity Passager {
    nom
    prenom
    dateNaissance
    age
    numeroPassport
    dateAutorisationParentale
}

Vol }o- -|| Aeroport: arrive
Vol }o- -|| Aeroport: part
Vol ||- -o{ OccurrenceVol: est réalisé

Avion }o- -|| CompagnieAerienne: appartient

Billet }o- -|| Voyage: est composé de
Billet }o- -|| OccurrenceVol: billet pour

Voyage }o- -|| Passager: achète

Aeroport }o- -|| Pays: est domicilié

OccurrenceVol ||- -o{ DonneesTranspondeur: transmet des données
OccurrenceVol }o- -|| Avion: a


RevisionAvion }o- -|| Avion: a été révisé

@enduml

PlantUML version 1.2022.7(Mon Aug 22 13:01:30 EDT 2022)
(GPL source distribution)
Java Runtime: OpenJDK Runtime Environment
JVM: OpenJDK 64-Bit Server VM
Default Encoding: UTF-8
Language: fr
Country: CA
--></g></svg>