<?xml version="1.0" encoding="UTF-8" standalone="no"?><svg xmlns="http://www.w3.org/2000/svg" xmlns:xlink="http://www.w3.org/1999/xlink" contentStyleType="text/css" height="559px" preserveAspectRatio="none" style="width:777px;height:559px;background:#FFFFFF;" version="1.1" viewBox="0 0 777 559" width="777px" zoomAndPan="magnify"><defs/><g><!--MD5=[aa2bb12b1d34009d39b42a242f861e93]
class Pays--><g id="elem_Pays"><rect codeLine="2" fill="#F1F1F1" height="80.9766" id="Pays" rx="2.5" ry="2.5" style="stroke:#181818;stroke-width:0.5;" width="103" x="7" y="438.37"/><ellipse cx="40.45" cy="454.37" fill="#ADD1B2" rx="11" ry="11" style="stroke:#181818;stroke-width:1.0;"/><path d="M44.0643,460.87 L36.3445,460.87 L36.3445,448.4769 L44.0643,448.4769 L44.0643,450.6351 L38.7933,450.6351 L38.7933,453.308 L43.5662,453.308 L43.5662,455.4662 L38.7933,455.4662 L38.7933,458.7118 L44.0643,458.7118 Z " fill="#000000"/><text fill="#000000" font-family="sans-serif" font-size="14" lengthAdjust="spacing" textLength="30" x="58.55" y="459.661">Pays</text><line style="stroke:#181818;stroke-width:0.5;" x1="8" x2="109" y1="470.37" y2="470.37"/><text fill="#000000" font-family="sans-serif" font-size="14" lengthAdjust="spacing" textLength="56" x="13" y="487.9052">codeISO</text><text fill="#000000" font-family="sans-serif" font-size="14" lengthAdjust="spacing" textLength="91" x="13" y="504.3934">descriptionFr</text><line style="stroke:#181818;stroke-width:0.5;" x1="8" x2="109" y1="511.3466" y2="511.3466"/></g><!--MD5=[93e6ce547ff226cccf2c6dd7385ec68f]
class Aeroport--><g id="elem_Aeroport"><rect codeLine="7" fill="#F1F1F1" height="113.9531" id="Aeroport" rx="2.5" ry="2.5" style="stroke:#181818;stroke-width:0.5;" width="94" x="25.5" y="206.19"/><ellipse cx="40.5" cy="222.19" fill="#ADD1B2" rx="11" ry="11" style="stroke:#181818;stroke-width:1.0;"/><path d="M44.1143,228.69 L36.3945,228.69 L36.3945,216.2969 L44.1143,216.2969 L44.1143,218.4551 L38.8433,218.4551 L38.8433,221.128 L43.6162,221.128 L43.6162,223.2862 L38.8433,223.2862 L38.8433,226.5318 L44.1143,226.5318 Z " fill="#000000"/><text fill="#000000" font-family="sans-serif" font-size="14" lengthAdjust="spacing" textLength="62" x="54.5" y="227.481">Aeroport</text><line style="stroke:#181818;stroke-width:0.5;" x1="26.5" x2="118.5" y1="238.19" y2="238.19"/><text fill="#000000" font-family="sans-serif" font-size="14" lengthAdjust="spacing" textLength="33" x="31.5" y="255.7252">code</text><text fill="#000000" font-family="sans-serif" font-size="14" lengthAdjust="spacing" textLength="31" x="31.5" y="272.2134">nom</text><text fill="#000000" font-family="sans-serif" font-size="14" lengthAdjust="spacing" textLength="27" x="31.5" y="288.7017">ville</text><text fill="#000000" font-family="sans-serif" font-size="14" lengthAdjust="spacing" textLength="31" x="31.5" y="305.19">pays</text><line style="stroke:#181818;stroke-width:0.5;" x1="26.5" x2="118.5" y1="312.1431" y2="312.1431"/></g><!--MD5=[441ae960a862e573906b3bd2852bbbcc]
class OccurrenceVol--><g id="elem_OccurrenceVol"><rect codeLine="14" fill="#F1F1F1" height="113.9531" id="OccurrenceVol" rx="2.5" ry="2.5" style="stroke:#181818;stroke-width:0.5;" width="137" x="380" y="206.19"/><ellipse cx="397.25" cy="222.19" fill="#ADD1B2" rx="11" ry="11" style="stroke:#181818;stroke-width:1.0;"/><path d="M400.8643,228.69 L393.1445,228.69 L393.1445,216.2969 L400.8643,216.2969 L400.8643,218.4551 L395.5933,218.4551 L395.5933,221.128 L400.3662,221.128 L400.3662,223.2862 L395.5933,223.2862 L395.5933,226.5318 L400.8643,226.5318 Z " fill="#000000"/><text fill="#000000" font-family="sans-serif" font-size="14" lengthAdjust="spacing" textLength="100" x="411.75" y="227.481">OccurrenceVol</text><line style="stroke:#181818;stroke-width:0.5;" x1="381" x2="516" y1="238.19" y2="238.19"/><text fill="#000000" font-family="sans-serif" font-size="14" lengthAdjust="spacing" textLength="122" x="386" y="255.7252">dateDepartPrevue</text><text fill="#000000" font-family="sans-serif" font-size="14" lengthAdjust="spacing" textLength="125" x="386" y="272.2134">dateArriveePrevue</text><text fill="#000000" font-family="sans-serif" font-size="14" lengthAdjust="spacing" textLength="117" x="386" y="288.7017">dateDepartReelle</text><text fill="#000000" font-family="sans-serif" font-size="14" lengthAdjust="spacing" textLength="120" x="386" y="305.19">dateArriveeReelle</text><line style="stroke:#181818;stroke-width:0.5;" x1="381" x2="516" y1="312.1431" y2="312.1431"/></g><!--MD5=[faefaeeaeee21baa303d48d30d35547c]
class Vol--><g id="elem_Vol"><rect codeLine="21" fill="#F1F1F1" height="113.9531" id="Vol" rx="2.5" ry="2.5" style="stroke:#181818;stroke-width:0.5;" width="121" x="115" y="7"/><ellipse cx="160.25" cy="23" fill="#ADD1B2" rx="11" ry="11" style="stroke:#181818;stroke-width:1.0;"/><path d="M163.8643,29.5 L156.1445,29.5 L156.1445,17.1069 L163.8643,17.1069 L163.8643,19.2651 L158.5933,19.2651 L158.5933,21.938 L163.3662,21.938 L163.3662,24.0962 L158.5933,24.0962 L158.5933,27.3418 L163.8643,27.3418 Z " fill="#000000"/><text fill="#000000" font-family="sans-serif" font-size="14" lengthAdjust="spacing" textLength="22" x="180.75" y="28.291">Vol</text><line style="stroke:#181818;stroke-width:0.5;" x1="116" x2="235" y1="39" y2="39"/><text fill="#000000" font-family="sans-serif" font-size="14" lengthAdjust="spacing" textLength="54" x="121" y="56.5352">numero</text><text fill="#000000" font-family="sans-serif" font-size="14" lengthAdjust="spacing" textLength="102" x="121" y="73.0234">dureeMoyenne</text><text fill="#000000" font-family="sans-serif" font-size="14" lengthAdjust="spacing" textLength="106" x="121" y="89.5117">aeroportDepart</text><text fill="#000000" font-family="sans-serif" font-size="14" lengthAdjust="spacing" textLength="109" x="121" y="106">aeroportArrivee</text><line style="stroke:#181818;stroke-width:0.5;" x1="116" x2="235" y1="112.9531" y2="112.9531"/></g><!--MD5=[7c8ba23bb7be92d44dd1be9ab48aedaf]
class DonneesTranspondeur--><g id="elem_DonneesTranspondeur"><rect codeLine="28" fill="#F1F1F1" height="80.9766" id="DonneesTranspondeur" rx="2.5" ry="2.5" style="stroke:#181818;stroke-width:0.5;" width="190" x="353.5" y="438.37"/><ellipse cx="368.5" cy="454.37" fill="#ADD1B2" rx="11" ry="11" style="stroke:#181818;stroke-width:1.0;"/><path d="M372.1143,460.87 L364.3945,460.87 L364.3945,448.4769 L372.1143,448.4769 L372.1143,450.6351 L366.8433,450.6351 L366.8433,453.308 L371.6162,453.308 L371.6162,455.4662 L366.8433,455.4662 L366.8433,458.7118 L372.1143,458.7118 Z " fill="#000000"/><text fill="#000000" font-family="sans-serif" font-size="14" lengthAdjust="spacing" textLength="158" x="382.5" y="459.661">DonneesTranspondeur</text><line style="stroke:#181818;stroke-width:0.5;" x1="354.5" x2="542.5" y1="470.37" y2="470.37"/><text fill="#000000" font-family="sans-serif" font-size="14" lengthAdjust="spacing" textLength="30" x="359.5" y="487.9052">date</text><text fill="#000000" font-family="sans-serif" font-size="14" lengthAdjust="spacing" textLength="90" x="359.5" y="504.3934">coordonnees</text><line style="stroke:#181818;stroke-width:0.5;" x1="354.5" x2="542.5" y1="511.3466" y2="511.3466"/></g><!--MD5=[01f9a401cf506495089c678bd476f389]
class Avion--><g id="elem_Avion"><rect codeLine="33" fill="#F1F1F1" height="130.4414" id="Avion" rx="2.5" ry="2.5" style="stroke:#181818;stroke-width:0.5;" width="108" x="177.5" y="197.95"/><ellipse cx="209.15" cy="213.95" fill="#ADD1B2" rx="11" ry="11" style="stroke:#181818;stroke-width:1.0;"/><path d="M212.7643,220.45 L205.0445,220.45 L205.0445,208.0569 L212.7643,208.0569 L212.7643,210.2151 L207.4933,210.2151 L207.4933,212.888 L212.2662,212.888 L212.2662,215.0462 L207.4933,215.0462 L207.4933,218.2918 L212.7643,218.2918 Z " fill="#000000"/><text fill="#000000" font-family="sans-serif" font-size="14" lengthAdjust="spacing" textLength="39" x="226.85" y="219.241">Avion</text><line style="stroke:#181818;stroke-width:0.5;" x1="178.5" x2="284.5" y1="229.95" y2="229.95"/><text fill="#000000" font-family="sans-serif" font-size="14" lengthAdjust="spacing" textLength="53" x="183.5" y="247.4852">marque</text><text fill="#000000" font-family="sans-serif" font-size="14" lengthAdjust="spacing" textLength="54" x="183.5" y="263.9734">numero</text><text fill="#000000" font-family="sans-serif" font-size="14" lengthAdjust="spacing" textLength="29" x="183.5" y="280.4617">type</text><text fill="#000000" font-family="sans-serif" font-size="14" lengthAdjust="spacing" textLength="96" x="183.5" y="296.95">nombrePlaces</text><text fill="#000000" font-family="sans-serif" font-size="14" lengthAdjust="spacing" textLength="69" x="183.5" y="313.4383">dateAchat</text><line style="stroke:#181818;stroke-width:0.5;" x1="178.5" x2="284.5" y1="320.3914" y2="320.3914"/></g><!--MD5=[0beb38d25f87035279933f69d2939b10]
class RevisionAvion--><g id="elem_RevisionAvion"><rect codeLine="41" fill="#F1F1F1" height="97.4648" id="RevisionAvion" rx="2.5" ry="2.5" style="stroke:#181818;stroke-width:0.5;" width="128" x="307.5" y="15.24"/><ellipse cx="322.5" cy="31.24" fill="#ADD1B2" rx="11" ry="11" style="stroke:#181818;stroke-width:1.0;"/><path d="M326.1143,37.74 L318.3945,37.74 L318.3945,25.3469 L326.1143,25.3469 L326.1143,27.5051 L320.8433,27.5051 L320.8433,30.178 L325.6162,30.178 L325.6162,32.3362 L320.8433,32.3362 L320.8433,35.5818 L326.1143,35.5818 Z " fill="#000000"/><text fill="#000000" font-family="sans-serif" font-size="14" lengthAdjust="spacing" textLength="96" x="336.5" y="36.531">RevisionAvion</text><line style="stroke:#181818;stroke-width:0.5;" x1="308.5" x2="434.5" y1="47.24" y2="47.24"/><text fill="#000000" font-family="sans-serif" font-size="14" lengthAdjust="spacing" textLength="30" x="313.5" y="64.7752">date</text><text fill="#000000" font-family="sans-serif" font-size="14" lengthAdjust="spacing" textLength="67" x="313.5" y="81.2634">peutVoler</text><text fill="#000000" font-family="sans-serif" font-size="14" lengthAdjust="spacing" textLength="29" x="313.5" y="97.7517">type</text><line style="stroke:#181818;stroke-width:0.5;" x1="308.5" x2="434.5" y1="104.7048" y2="104.7048"/></g><!--MD5=[d2a5054efb8cf591ccfcc95591a5345c]
class CompagnieAerienne--><g id="elem_CompagnieAerienne"><rect codeLine="50" fill="#F1F1F1" height="80.9766" id="CompagnieAerienne" rx="2.5" ry="2.5" style="stroke:#181818;stroke-width:0.5;" width="173" x="145" y="438.37"/><ellipse cx="160" cy="454.37" fill="#ADD1B2" rx="11" ry="11" style="stroke:#181818;stroke-width:1.0;"/><path d="M163.6143,460.87 L155.8945,460.87 L155.8945,448.4769 L163.6143,448.4769 L163.6143,450.6351 L158.3433,450.6351 L158.3433,453.308 L163.1162,453.308 L163.1162,455.4662 L158.3433,455.4662 L158.3433,458.7118 L163.6143,458.7118 Z " fill="#000000"/><text fill="#000000" font-family="sans-serif" font-size="14" lengthAdjust="spacing" textLength="141" x="174" y="459.661">CompagnieAerienne</text><line style="stroke:#181818;stroke-width:0.5;" x1="146" x2="317" y1="470.37" y2="470.37"/><text fill="#000000" font-family="sans-serif" font-size="14" lengthAdjust="spacing" textLength="31" x="151" y="487.9052">nom</text><text fill="#000000" font-family="sans-serif" font-size="14" lengthAdjust="spacing" textLength="77" x="151" y="504.3934">abreviation</text><line style="stroke:#181818;stroke-width:0.5;" x1="146" x2="317" y1="511.3466" y2="511.3466"/></g><!--MD5=[2b591347219e2d308bdf301555c4d62b]
class Voyage--><g id="elem_Voyage"><rect codeLine="55" fill="#F1F1F1" height="64.4883" id="Voyage" rx="2.5" ry="2.5" style="stroke:#181818;stroke-width:0.5;" width="82" x="622.5" y="230.93"/><ellipse cx="637.5" cy="246.93" fill="#ADD1B2" rx="11" ry="11" style="stroke:#181818;stroke-width:1.0;"/><path d="M641.1143,253.43 L633.3945,253.43 L633.3945,241.0369 L641.1143,241.0369 L641.1143,243.1951 L635.8433,243.1951 L635.8433,245.868 L640.6162,245.868 L640.6162,248.0262 L635.8433,248.0262 L635.8433,251.2718 L641.1143,251.2718 Z " fill="#000000"/><text fill="#000000" font-family="sans-serif" font-size="14" lengthAdjust="spacing" textLength="50" x="651.5" y="252.221">Voyage</text><line style="stroke:#181818;stroke-width:0.5;" x1="623.5" x2="703.5" y1="262.93" y2="262.93"/><text fill="#000000" font-family="sans-serif" font-size="14" lengthAdjust="spacing" textLength="28" x="628.5" y="280.4652">prix</text><line style="stroke:#181818;stroke-width:0.5;" x1="623.5" x2="703.5" y1="287.4183" y2="287.4183"/></g><!--MD5=[2f53d364b4e3b7d802afc29f72dce69f]
class Billet--><g id="elem_Billet"><rect codeLine="59" fill="#F1F1F1" height="97.4648" id="Billet" rx="2.5" ry="2.5" style="stroke:#181818;stroke-width:0.5;" width="65" x="536" y="15.24"/><ellipse cx="551" cy="31.24" fill="#ADD1B2" rx="11" ry="11" style="stroke:#181818;stroke-width:1.0;"/><path d="M554.6143,37.74 L546.8945,37.74 L546.8945,25.3469 L554.6143,25.3469 L554.6143,27.5051 L549.3433,27.5051 L549.3433,30.178 L554.1162,30.178 L554.1162,32.3362 L549.3433,32.3362 L549.3433,35.5818 L554.6143,35.5818 Z " fill="#000000"/><text fill="#000000" font-family="sans-serif" font-size="14" lengthAdjust="spacing" textLength="33" x="565" y="36.531">Billet</text><line style="stroke:#181818;stroke-width:0.5;" x1="537" x2="600" y1="47.24" y2="47.24"/><text fill="#000000" font-family="sans-serif" font-size="14" lengthAdjust="spacing" textLength="32" x="542" y="64.7752">rang</text><text fill="#000000" font-family="sans-serif" font-size="14" lengthAdjust="spacing" textLength="36" x="542" y="81.2634">siege</text><text fill="#000000" font-family="sans-serif" font-size="14" lengthAdjust="spacing" textLength="41" x="542" y="97.7517">classe</text><line style="stroke:#181818;stroke-width:0.5;" x1="537" x2="600" y1="104.7048" y2="104.7048"/></g><!--MD5=[ff1aec9047438da9d3e23b981a7faa18]
class Passager--><g id="elem_Passager"><rect codeLine="65" fill="#F1F1F1" height="146.9297" id="Passager" rx="2.5" ry="2.5" style="stroke:#181818;stroke-width:0.5;" width="191" x="579" y="405.39"/><ellipse cx="639.75" cy="421.39" fill="#ADD1B2" rx="11" ry="11" style="stroke:#181818;stroke-width:1.0;"/><path d="M643.3643,427.89 L635.6445,427.89 L635.6445,415.4969 L643.3643,415.4969 L643.3643,417.6551 L638.0933,417.6551 L638.0933,420.328 L642.8662,420.328 L642.8662,422.4862 L638.0933,422.4862 L638.0933,425.7318 L643.3643,425.7318 Z " fill="#000000"/><text fill="#000000" font-family="sans-serif" font-size="14" lengthAdjust="spacing" textLength="61" x="660.25" y="426.681">Passager</text><line style="stroke:#181818;stroke-width:0.5;" x1="580" x2="769" y1="437.39" y2="437.39"/><text fill="#000000" font-family="sans-serif" font-size="14" lengthAdjust="spacing" textLength="31" x="585" y="454.9252">nom</text><text fill="#000000" font-family="sans-serif" font-size="14" lengthAdjust="spacing" textLength="54" x="585" y="471.4134">prenom</text><text fill="#000000" font-family="sans-serif" font-size="14" lengthAdjust="spacing" textLength="98" x="585" y="487.9017">dateNaissance</text><text fill="#000000" font-family="sans-serif" font-size="14" lengthAdjust="spacing" textLength="25" x="585" y="504.39">age</text><text fill="#000000" font-family="sans-serif" font-size="14" lengthAdjust="spacing" textLength="113" x="585" y="520.8783">numeroPassport</text><text fill="#000000" font-family="sans-serif" font-size="14" lengthAdjust="spacing" textLength="179" x="585" y="537.3666">dateAutorisationParentale</text><line style="stroke:#181818;stroke-width:0.5;" x1="580" x2="769" y1="544.3197" y2="544.3197"/></g><!--MD5=[3efb8c8a00f7f3128b29f99bea7c7795]
link Vol to Aeroport--><g id="link_Vol_Aeroport"><path codeLine="74" d="M141.82,129.44 C130.4,151.31 117.65,175.73 106.22,197.6 " fill="none" id="Vol-Aeroport" style="stroke:#181818;stroke-width:1.0;"/><line style="stroke:#181818;stroke-width:1.0;" x1="108.0172" x2="100.9258" y1="202.8158" y2="199.1128"/><line style="stroke:#181818;stroke-width:1.0;" x1="109.4058" x2="102.3144" y1="200.1565" y2="196.4535"/><line style="stroke:#181818;stroke-width:1.0;" x1="106.323" x2="102.62" y1="197.4186" y2="204.51"/><line style="stroke:#181818;stroke-width:1.0;" x1="141.7058" x2="140.1058" y1="129.6455" y2="119.7744"/><line style="stroke:#181818;stroke-width:1.0;" x1="141.7058" x2="150.7342" y1="129.6455" y2="125.3456"/><line style="stroke:#181818;stroke-width:1.0;" x1="141.7058" x2="145.42" y1="129.6455" y2="122.56"/><ellipse cx="138.9202" cy="134.9597" fill="none" rx="4" ry="4" style="stroke:#181818;stroke-width:1.0;"/><text fill="#000000" font-family="sans-serif" font-size="13" lengthAdjust="spacing" textLength="35" x="131.5" y="164.5184">arrive</text></g><!--MD5=[3efb8c8a00f7f3128b29f99bea7c7795]
link Vol to Aeroport--><g id="link_Vol_Aeroport"><path codeLine="75" d="M108.51,122.65 C101.17,131.48 94.54,140.99 89.5,150.95 C82.42,164.93 78.11,181.08 75.53,196.66 " fill="none" id="Vol-Aeroport-1" style="stroke:#181818;stroke-width:1.0;"/><line style="stroke:#181818;stroke-width:1.0;" x1="78.9566" x2="71.0408" y1="200.8708" y2="199.7134"/><line style="stroke:#181818;stroke-width:1.0;" x1="79.3906" x2="71.4748" y1="197.9023" y2="196.745"/><line style="stroke:#181818;stroke-width:1.0;" x1="75.5774" x2="74.42" y1="196.3342" y2="204.25"/><line style="stroke:#181818;stroke-width:1.0;" x1="108.2902" x2="109.0126" y1="122.9065" y2="112.9327"/><line style="stroke:#181818;stroke-width:1.0;" x1="108.2902" x2="118.0674" y1="122.9065" y2="120.8073"/><line style="stroke:#181818;stroke-width:1.0;" x1="108.2902" x2="113.54" y1="122.9065" y2="116.87"/><ellipse cx="104.3529" cy="127.4339" fill="none" rx="4" ry="4" style="stroke:#181818;stroke-width:1.0;"/><text fill="#000000" font-family="sans-serif" font-size="13" lengthAdjust="spacing" textLength="25" x="90.5" y="164.5184">part</text></g><!--MD5=[ccbaa2c8d4ccdd29c050b1e5dcdacb6c]
link Vol to Avion--><g id="link_Vol_Avion"><path codeLine="76" d="M194.06,130.32 C199.35,148.97 205.16,169.42 210.59,188.53 " fill="none" id="Vol-Avion" style="stroke:#181818;stroke-width:1.0;"/><line style="stroke:#181818;stroke-width:1.0;" x1="215.4757" x2="207.7797" y1="191.1097" y2="193.2943"/><line style="stroke:#181818;stroke-width:1.0;" x1="214.6565" x2="206.9605" y1="188.2238" y2="190.4083"/><line style="stroke:#181818;stroke-width:1.0;" x1="210.5354" x2="212.72" y1="188.354" y2="196.05"/><line style="stroke:#181818;stroke-width:1.0;" x1="194.0783" x2="186.1188" y1="130.3649" y2="124.3112"/><line style="stroke:#181818;stroke-width:1.0;" x1="194.0783" x2="197.6612" y1="130.3649" y2="121.0288"/><line style="stroke:#181818;stroke-width:1.0;" x1="194.0783" x2="191.89" y1="130.3649" y2="122.67"/><ellipse cx="195.7196" cy="136.136" fill="none" rx="4" ry="4" style="stroke:#181818;stroke-width:1.0;"/><text fill="#000000" font-family="sans-serif" font-size="13" lengthAdjust="spacing" textLength="7" x="204.5" y="164.5184">a</text></g><!--MD5=[c0340e19428f123b5e09bc2c849701aa]
link Vol to OccurrenceVol--><g id="link_Vol_OccurrenceVol"><path codeLine="77" d="M219.67,128.65 C231.26,142.68 244.47,156.69 258.5,167.95 C277.45,183.16 327.37,207.73 371.28,227.97 " fill="none" id="Vol-OccurrenceVol" style="stroke:#181818;stroke-width:1.0;"/><line style="stroke:#181818;stroke-width:1.0;" x1="371.0413" x2="380.8162" y1="227.8484" y2="225.7385"/><line style="stroke:#181818;stroke-width:1.0;" x1="371.0413" x2="375.8038" y1="227.8484" y2="236.6415"/><line style="stroke:#181818;stroke-width:1.0;" x1="371.0413" x2="378.31" y1="227.8484" y2="231.19"/><ellipse cx="365.5898" cy="225.3422" fill="none" rx="4" ry="4" style="stroke:#181818;stroke-width:1.0;"/><line style="stroke:#181818;stroke-width:1.0;" x1="214.1104" x2="220.335" y1="128.135" y2="123.1096"/><line style="stroke:#181818;stroke-width:1.0;" x1="215.9949" x2="222.2195" y1="130.4692" y2="125.4438"/><line style="stroke:#181818;stroke-width:1.0;" x1="219.7354" x2="214.71" y1="128.7346" y2="122.51"/><text fill="#000000" font-family="sans-serif" font-size="13" lengthAdjust="spacing" textLength="64" x="259.5" y="164.5184">est réalisé</text></g><!--MD5=[e55b83172bdec7a47a4aba08b4c97b03]
link Avion to CompagnieAerienne--><g id="link_Avion_CompagnieAerienne"><path codeLine="79" d="M231.5,338.17 C231.5,368.11 231.5,401.87 231.5,428.7 " fill="none" id="Avion-CompagnieAerienne" style="stroke:#181818;stroke-width:1.0;"/><line style="stroke:#181818;stroke-width:1.0;" x1="235.5" x2="227.5" y1="432.37" y2="432.37"/><line style="stroke:#181818;stroke-width:1.0;" x1="235.5" x2="227.5" y1="429.37" y2="429.37"/><line style="stroke:#181818;stroke-width:1.0;" x1="231.5" x2="231.5" y1="428.37" y2="436.37"/><line style="stroke:#181818;stroke-width:1.0;" x1="231.5" x2="225.5" y1="338.38" y2="330.38"/><line style="stroke:#181818;stroke-width:1.0;" x1="231.5" x2="237.5" y1="338.38" y2="330.38"/><line style="stroke:#181818;stroke-width:1.0;" x1="231.5" x2="231.5" y1="338.38" y2="330.38"/><ellipse cx="231.5" cy="344.38" fill="none" rx="4" ry="4" style="stroke:#181818;stroke-width:1.0;"/><text fill="#000000" font-family="sans-serif" font-size="13" lengthAdjust="spacing" textLength="64" x="232.5" y="371.9584">appartient</text></g><!--MD5=[564ea20c81718947a70be176d025d750]
link Billet to Voyage--><g id="link_Billet_Voyage"><path codeLine="81" d="M595.64,121.31 C611.2,153.6 630.35,193.35 644.33,222.38 " fill="none" id="Billet-Voyage" style="stroke:#181818;stroke-width:1.0;"/><line style="stroke:#181818;stroke-width:1.0;" x1="649.53" x2="642.3212" y1="223.9412" y2="227.41"/><line style="stroke:#181818;stroke-width:1.0;" x1="648.2292" x2="641.0204" y1="221.2379" y2="224.7067"/><line style="stroke:#181818;stroke-width:1.0;" x1="644.1912" x2="647.66" y1="222.0712" y2="229.28"/><line style="stroke:#181818;stroke-width:1.0;" x1="595.7488" x2="586.8734" y1="121.5288" y2="116.9216"/><line style="stroke:#181818;stroke-width:1.0;" x1="595.7488" x2="597.6866" y1="121.5288" y2="111.7184"/><line style="stroke:#181818;stroke-width:1.0;" x1="595.7488" x2="592.28" y1="121.5288" y2="114.32"/><ellipse cx="598.3504" cy="126.9355" fill="none" rx="4" ry="4" style="stroke:#181818;stroke-width:1.0;"/><text fill="#000000" font-family="sans-serif" font-size="13" lengthAdjust="spacing" textLength="99" x="616.5" y="164.5184">est composé de</text></g><!--MD5=[2c0d9c8978b7657e9160aa0f7b7d1f61]
link Billet to OccurrenceVol--><g id="link_Billet_OccurrenceVol"><path codeLine="82" d="M534.38,121.03 C519.79,145.02 502.67,173.16 487.56,197.97 " fill="none" id="Billet-OccurrenceVol" style="stroke:#181818;stroke-width:1.0;"/><line style="stroke:#181818;stroke-width:1.0;" x1="489.0254" x2="482.1883" y1="203.2683" y2="199.1146"/><line style="stroke:#181818;stroke-width:1.0;" x1="490.5831" x2="483.7459" y1="200.7043" y2="196.5506"/><line style="stroke:#181818;stroke-width:1.0;" x1="487.6837" x2="483.53" y1="197.7728" y2="204.61"/><line style="stroke:#181818;stroke-width:1.0;" x1="534.35" x2="533.385" y1="121.0833" y2="111.13"/><line style="stroke:#181818;stroke-width:1.0;" x1="534.35" x2="543.635" y1="121.0833" y2="117.37"/><line style="stroke:#181818;stroke-width:1.0;" x1="534.35" x2="538.51" y1="121.0833" y2="114.25"/><ellipse cx="531.2299" cy="126.2083" fill="none" rx="4" ry="4" style="stroke:#181818;stroke-width:1.0;"/><text fill="#000000" font-family="sans-serif" font-size="13" lengthAdjust="spacing" textLength="65" x="516.5" y="164.5184">billet pour</text></g><!--MD5=[b4c91264d542aaf72f26c92c4e358573]
link Voyage to Passager--><g id="link_Voyage_Passager"><path codeLine="84" d="M665.6,304.87 C666.92,330.59 668.68,364.74 670.28,395.89 " fill="none" id="Voyage-Passager" style="stroke:#181818;stroke-width:1.0;"/><line style="stroke:#181818;stroke-width:1.0;" x1="674.4649" x2="666.4749" y1="399.3149" y2="399.7151"/><line style="stroke:#181818;stroke-width:1.0;" x1="674.3148" x2="666.3248" y1="396.3187" y2="396.7189"/><line style="stroke:#181818;stroke-width:1.0;" x1="670.2698" x2="670.67" y1="395.52" y2="403.51"/><line style="stroke:#181818;stroke-width:1.0;" x1="665.6002" x2="659.2075" y1="305.2" y2="297.5102"/><line style="stroke:#181818;stroke-width:1.0;" x1="665.6002" x2="671.1925" y1="305.2" y2="296.9098"/><line style="stroke:#181818;stroke-width:1.0;" x1="665.6002" x2="665.2" y1="305.2" y2="297.21"/><ellipse cx="665.9004" cy="311.1925" fill="none" rx="4" ry="4" style="stroke:#181818;stroke-width:1.0;"/><text fill="#000000" font-family="sans-serif" font-size="13" lengthAdjust="spacing" textLength="41" x="669.5" y="371.9584">achète</text></g><!--MD5=[67ce1bdf560c95682f90702db6ae92c7]
link Aeroport to Pays--><g id="link_Aeroport_Pays"><path codeLine="86" d="M68.19,329.89 C66.1,361.79 63.64,399.47 61.71,428.83 " fill="none" id="Aeroport-Pays" style="stroke:#181818;stroke-width:1.0;"/><line style="stroke:#181818;stroke-width:1.0;" x1="65.4592" x2="57.4758" y1="432.7958" y2="432.2808"/><line style="stroke:#181818;stroke-width:1.0;" x1="65.6524" x2="57.669" y1="429.8021" y2="429.287"/><line style="stroke:#181818;stroke-width:1.0;" x1="61.7251" x2="61.21" y1="428.5466" y2="436.53"/><line style="stroke:#181818;stroke-width:1.0;" x1="68.1716" x2="62.7131" y1="330.0825" y2="321.7037"/><line style="stroke:#181818;stroke-width:1.0;" x1="68.1716" x2="74.6869" y1="330.0825" y2="322.4963"/><line style="stroke:#181818;stroke-width:1.0;" x1="68.1716" x2="68.7" y1="330.0825" y2="322.1"/><ellipse cx="67.7754" cy="336.0694" fill="none" rx="4" ry="4" style="stroke:#181818;stroke-width:1.0;"/><text fill="#000000" font-family="sans-serif" font-size="13" lengthAdjust="spacing" textLength="81" x="67.5" y="371.9584">est domicilié</text></g><!--MD5=[16a021df941bbae1830b4d3c2986cacd]
link OccurrenceVol to DonneesTranspondeur--><g id="link_OccurrenceVol_DonneesTranspondeur"><path codeLine="88" d="M448.5,329.89 C448.5,361.79 448.5,399.47 448.5,428.83 " fill="none" id="OccurrenceVol-DonneesTranspondeur" style="stroke:#181818;stroke-width:1.0;"/><line style="stroke:#181818;stroke-width:1.0;" x1="448.5" x2="454.5" y1="428.53" y2="436.53"/><line style="stroke:#181818;stroke-width:1.0;" x1="448.5" x2="442.5" y1="428.53" y2="436.53"/><line style="stroke:#181818;stroke-width:1.0;" x1="448.5" x2="448.5" y1="428.53" y2="436.53"/><ellipse cx="448.5" cy="422.53" fill="none" rx="4" ry="4" style="stroke:#181818;stroke-width:1.0;"/><line style="stroke:#181818;stroke-width:1.0;" x1="444.5" x2="452.5" y1="326.11" y2="326.11"/><line style="stroke:#181818;stroke-width:1.0;" x1="444.5" x2="452.5" y1="329.11" y2="329.11"/><line style="stroke:#181818;stroke-width:1.0;" x1="448.5" x2="448.5" y1="330.11" y2="322.11"/><text fill="#000000" font-family="sans-serif" font-size="13" lengthAdjust="spacing" textLength="139" x="449.5" y="371.9584">transmet des données</text></g><!--MD5=[54c5bbfc82dfac6c841aea4b2ab86407]
link RevisionAvion to Avion--><g id="link_RevisionAvion_Avion"><path codeLine="90" d="M355.3,121.67 C349.44,137.38 341.89,153.95 332.5,167.95 C321.43,184.44 306.96,200.12 292.43,213.79 " fill="none" id="RevisionAvion-Avion" style="stroke:#181818;stroke-width:1.0;"/><line style="stroke:#181818;stroke-width:1.0;" x1="292.5322" x2="287.1084" y1="219.1284" y2="213.2478"/><line style="stroke:#181818;stroke-width:1.0;" x1="294.7375" x2="289.3136" y1="217.0944" y2="211.2138"/><line style="stroke:#181818;stroke-width:1.0;" x1="292.7606" x2="286.88" y1="213.4761" y2="218.9"/><line style="stroke:#181818;stroke-width:1.0;" x1="355.192" x2="352.2288" y1="122.0149" y2="112.464"/><line style="stroke:#181818;stroke-width:1.0;" x1="355.192" x2="363.5312" y1="122.0149" y2="116.496"/><line style="stroke:#181818;stroke-width:1.0;" x1="355.192" x2="357.88" y1="122.0149" y2="114.48"/><ellipse cx="353.176" cy="127.6661" fill="none" rx="4" ry="4" style="stroke:#181818;stroke-width:1.0;"/><text fill="#000000" font-family="sans-serif" font-size="13" lengthAdjust="spacing" textLength="71" x="343.5" y="164.5184">a été révisé</text></g><!--MD5=[0d8339df1a01c039fdc77dc7643a2bfc]
@startuml erd_airline_reservation_logique

entity Pays {
    codeISO
    descriptionFr
}

entity Aeroport {
    code
    nom
    ville
    pays
}

entity OccurrenceVol {
    dateDepartPrevue
    dateArriveePrevue
    dateDepartReelle
    dateArriveeReelle
}

entity Vol {
    numero
    dureeMoyenne
    aeroportDepart
    aeroportArrivee
}

entity DonneesTranspondeur {
    date
    coordonnees
}

entity Avion {
    marque
    numero
    type
    nombrePlaces
    dateAchat
}

entity RevisionAvion {
    date
    peutVoler
    type 
    ' https://fr.wikipedia.org/wiki/Visites_de_maintenance_des_avions
    ' A : / mois ou 500h de vol
    ' C : 
}

entity CompagnieAerienne {
    nom
    abreviation
}

entity Voyage {
    prix
}

entity Billet {
    rang
    siege
    classe
}

entity Passager {
    nom
    prenom
    dateNaissance
    age
    numeroPassport
    dateAutorisationParentale
}

Vol }o- -|| Aeroport: arrive
Vol }o- -|| Aeroport: part
Vol }o- -|| Avion: a
Vol ||- -o{ OccurrenceVol: est réalisé

Avion }o- -|| CompagnieAerienne: appartient

Billet }o- -|| Voyage: est composé de
Billet }o- -|| OccurrenceVol: billet pour

Voyage }o- -|| Passager: achète

Aeroport }o- -|| Pays: est domicilié

OccurrenceVol ||- -o{ DonneesTranspondeur: transmet des données

RevisionAvion }o- -|| Avion: a été révisé

@enduml

@startuml erd_airline_reservation_logique

entity Pays {
    codeISO
    descriptionFr
}

entity Aeroport {
    code
    nom
    ville
    pays
}

entity OccurrenceVol {
    dateDepartPrevue
    dateArriveePrevue
    dateDepartReelle
    dateArriveeReelle
}

entity Vol {
    numero
    dureeMoyenne
    aeroportDepart
    aeroportArrivee
}

entity DonneesTranspondeur {
    date
    coordonnees
}

entity Avion {
    marque
    numero
    type
    nombrePlaces
    dateAchat
}

entity RevisionAvion {
    date
    peutVoler
    type 
}

entity CompagnieAerienne {
    nom
    abreviation
}

entity Voyage {
    prix
}

entity Billet {
    rang
    siege
    classe
}

entity Passager {
    nom
    prenom
    dateNaissance
    age
    numeroPassport
    dateAutorisationParentale
}

Vol }o- -|| Aeroport: arrive
Vol }o- -|| Aeroport: part
Vol }o- -|| Avion: a
Vol ||- -o{ OccurrenceVol: est réalisé

Avion }o- -|| CompagnieAerienne: appartient

Billet }o- -|| Voyage: est composé de
Billet }o- -|| OccurrenceVol: billet pour

Voyage }o- -|| Passager: achète

Aeroport }o- -|| Pays: est domicilié

OccurrenceVol ||- -o{ DonneesTranspondeur: transmet des données

RevisionAvion }o- -|| Avion: a été révisé

@enduml

PlantUML version 1.2022.7(Mon Aug 22 13:01:30 EDT 2022)
(GPL source distribution)
Java Runtime: OpenJDK Runtime Environment
JVM: OpenJDK 64-Bit Server VM
Default Encoding: UTF-8
Language: fr
Country: CA
--></g></svg>